<svg xmlns="http://www.w3.org/2000/svg" width="20" height="20" fill="none"><g clip-path="url(#a)"><path d="M5.071 19.93c-1.189-.055-1.835-.253-2.265-.42a3.79 3.79 0 0 1-1.403-.913 3.762 3.762 0 0 1-.912-1.402c-.168-.43-.366-1.076-.42-2.265C.011 13.644 0 13.258 0 10c0-3.256.013-3.642.07-4.929.055-1.189.254-1.834.42-2.265.222-.57.487-.975.913-1.403A3.766 3.766 0 0 1 2.806.49C3.236.323 3.88.125 5.07.07 6.357.013 6.744 0 10 0c3.257 0 3.642.013 4.93.07 1.189.055 1.834.254 2.264.42.57.22.976.486 1.403.913.428.427.69.833.913 1.403.167.43.365 1.075.42 2.265.058 1.287.07 1.672.07 4.93 0 3.256-.012 3.642-.07 4.929-.055 1.19-.254 1.835-.42 2.265-.222.57-.486.975-.913 1.402-.427.427-.833.69-1.403.913-.43.167-1.075.365-2.265.42-1.286.058-1.672.07-4.93.07-3.255 0-3.642-.011-4.928-.07" fill="url(#b)"/><path d="M5.071 19.93c-1.189-.055-1.835-.253-2.265-.42a3.79 3.79 0 0 1-1.403-.913 3.762 3.762 0 0 1-.912-1.402c-.168-.43-.366-1.076-.42-2.265C.011 13.644 0 13.258 0 10c0-3.256.013-3.642.07-4.929.055-1.189.254-1.834.42-2.265.222-.57.487-.975.913-1.403A3.766 3.766 0 0 1 2.806.49C3.236.323 3.88.125 5.07.07 6.357.013 6.744 0 10 0c3.257 0 3.642.013 4.93.07 1.189.055 1.834.254 2.264.42.57.22.976.486 1.403.913.428.427.69.833.913 1.403.167.43.365 1.075.42 2.265.058 1.287.07 1.672.07 4.93 0 3.256-.012 3.642-.07 4.929-.055 1.19-.254 1.835-.42 2.265-.222.57-.486.975-.913 1.402-.427.427-.833.69-1.403.913-.43.167-1.075.365-2.265.42-1.286.058-1.672.07-4.93.07-3.255 0-3.642-.011-4.928-.07" fill="url(#c)"/><path d="M7.544 10.043a2.477 2.477 0 1 1 4.954-.001 2.477 2.477 0 0 1-4.954 0m-1.338 0a3.815 3.815 0 1 0 7.63 0 3.815 3.815 0 0 0-7.63 0m6.89-3.966a.892.892 0 1 0 .892-.891.892.892 0 0 0-.893.891M7.02 16.091c-.724-.033-1.118-.154-1.38-.256a2.31 2.31 0 0 1-.854-.556 2.292 2.292 0 0 1-.556-.854c-.102-.261-.223-.655-.256-1.38-.036-.783-.043-1.018-.043-3.002 0-1.984.008-2.22.043-3.003.033-.724.155-1.117.256-1.38a2.31 2.31 0 0 1 .556-.854c.26-.26.507-.422.854-.556.262-.102.656-.223 1.38-.256.783-.036 1.018-.043 3.002-.043 1.983 0 2.219.008 3.002.043.725.033 1.118.155 1.38.256.347.134.595.296.855.556.26.26.42.508.556.854.102.262.222.656.255 1.38.036.784.043 1.019.043 3.003 0 1.984-.007 2.219-.043 3.003-.033.724-.154 1.118-.255 1.38a2.302 2.302 0 0 1-.556.853c-.26.26-.508.421-.855.556-.261.102-.655.223-1.38.256-.783.036-1.018.043-3.002.043-1.984 0-2.219-.007-3.002-.043M6.958 2.658c-.791.036-1.332.161-1.804.345-.489.19-.903.444-1.316.857a3.628 3.628 0 0 0-.857 1.316c-.184.472-.31 1.012-.345 1.803-.037.793-.045 1.046-.045 3.064 0 2.017.008 2.27.045 3.063.036.79.161 1.331.345 1.803.19.489.443.904.857 1.317a3.65 3.65 0 0 0 1.316.857c.473.183 1.013.309 1.804.345.792.036 1.045.045 3.063.045 2.018 0 2.27-.009 3.063-.045.791-.036 1.331-.162 1.803-.345.49-.19.903-.445 1.317-.857a3.64 3.64 0 0 0 .857-1.317c.183-.472.31-1.012.345-1.803.036-.793.044-1.046.044-3.063 0-2.018-.008-2.271-.044-3.064-.036-.79-.162-1.331-.345-1.803a3.655 3.655 0 0 0-.857-1.316 3.635 3.635 0 0 0-1.316-.857c-.473-.184-1.013-.31-1.803-.345-.793-.037-1.046-.045-3.063-.045-2.018 0-2.272.008-3.064.045" fill="#fff"/></g><defs><radialGradient id="b" cx="0" cy="0" r="1" gradientUnits="userSpaceOnUse" gradientTransform="translate(1.294 19.562) scale(25.3926)"><stop offset=".09" stop-color="#FA8F21"/><stop offset=".78" stop-color="#D82D7E"/></radialGradient><radialGradient id="c" cx="0" cy="0" r="1" gradientUnits="userSpaceOnUse" gradientTransform="translate(13.853 18.92) scale(22.3457)"><stop offset=".64" stop-color="#8C3AAA" stop-opacity="0"/><stop offset="1" stop-color="#8C3AAA"/></radialGradient><clipPath id="a"><rect width="20" height="20" rx="4" fill="#fff"/></clipPath></defs></svg>