<svg width="12" height="12" viewBox="0 0 12 12" fill="none" xmlns="http://www.w3.org/2000/svg">
<path d="M6.44933 10.9269C6.38222 10.8586 6.32897 10.7776 6.29264 10.6883C6.2563 10.599 6.2376 10.5033 6.2376 10.4066C6.2376 10.3099 6.2563 10.2142 6.29264 10.125C6.32897 10.0357 6.38222 9.9546 6.44933 9.88636L9.53812 6.73486L0.719858 6.73486C0.528939 6.73486 0.345841 6.65747 0.210842 6.51973C0.0758417 6.38199 -2.33331e-07 6.19518 -2.24817e-07 6.00038C-2.16302e-07 5.80559 0.0758417 5.61877 0.210842 5.48103C0.345841 5.34329 0.528939 5.26591 0.719858 5.26591L9.53812 5.26591L6.44933 2.11318C6.31409 1.9752 6.23812 1.78806 6.23812 1.59293C6.23812 1.39779 6.31409 1.21065 6.44933 1.07267C6.58456 0.934694 6.76798 0.857178 6.95923 0.857178C7.15048 0.857178 7.33389 0.934694 7.46913 1.07267L11.7883 5.47952C11.8554 5.54775 11.9086 5.62883 11.945 5.71811C11.9813 5.80739 12 5.9031 12 5.99977C12 6.09644 11.9813 6.19215 11.945 6.28143C11.9086 6.37071 11.8554 6.45179 11.7883 6.52002L7.46913 10.9269C7.40225 10.9953 7.32278 11.0497 7.23528 11.0867C7.14778 11.1238 7.05397 11.1429 6.95923 11.1429C6.86448 11.1429 6.77067 11.1238 6.68317 11.0867C6.59567 11.0497 6.5162 10.9953 6.44933 10.9269Z" fill="white"/>
</svg>
