<svg width="18" height="16" viewBox="0 0 18 16" fill="none" xmlns="http://www.w3.org/2000/svg">
<g clip-path="url(#clip0_0_3)">
<path fill-rule="evenodd" clip-rule="evenodd" d="M0.0197325 7.97608C0.0209221 7.52735 0.385654 7.16454 0.834384 7.16573L17.0843 7.20881C17.5331 7.21 17.8959 7.57473 17.8947 8.02346C17.8935 8.47219 17.5287 8.83499 17.08 8.8338L0.830076 8.79073C0.381346 8.78954 0.018543 8.42481 0.0197325 7.97608Z" fill="white"/>
<path fill-rule="evenodd" clip-rule="evenodd" d="M9.93273 15.1028C9.61693 14.784 9.61936 14.2695 9.93816 13.9537L15.9299 8.01827L9.96976 2.05217C9.65261 1.73471 9.65287 1.22026 9.97033 0.903118C10.2878 0.585975 10.8022 0.586232 11.1194 0.90369L17.6562 7.44704C17.8089 7.59991 17.8945 7.80732 17.8939 8.0234C17.8933 8.23948 17.8067 8.44644 17.6532 8.59851L11.0818 15.1082C10.763 15.424 10.2485 15.4216 9.93273 15.1028Z" fill="white"/>
</g>
<defs>
<clipPath id="clip0_0_3">
<rect width="18" height="16" fill="white"/>
</clipPath>
</defs>
</svg>
