<svg width="16" height="16" viewBox="0 0 16 16" fill="none" xmlns="http://www.w3.org/2000/svg">
<path d="M4.24934 3.72265C4.09616 3.95241 4.15825 4.26285 4.38801 4.41603C4.61778 4.5692 4.92821 4.50711 5.08139 4.27735L4.24934 3.72265ZM5.60288 2.59373L6.0189 2.87108V2.87108L5.60288 2.59373ZM10.3945 2.59373L10.8105 2.31638L10.3945 2.59373ZM10.916 4.27735C11.0692 4.50711 11.3796 4.5692 11.6094 4.41603C11.8391 4.26285 11.9012 3.95241 11.7481 3.72265L10.916 4.27735ZM9.4987 9C9.4987 9.82843 8.82713 10.5 7.9987 10.5V11.5C9.37941 11.5 10.4987 10.3807 10.4987 9H9.4987ZM7.9987 10.5C7.17027 10.5 6.4987 9.82843 6.4987 9H5.4987C5.4987 10.3807 6.61799 11.5 7.9987 11.5V10.5ZM6.4987 9C6.4987 8.17157 7.17027 7.5 7.9987 7.5V6.5C6.61799 6.5 5.4987 7.61929 5.4987 9H6.4987ZM7.9987 7.5C8.82713 7.5 9.4987 8.17157 9.4987 9H10.4987C10.4987 7.61929 9.37941 6.5 7.9987 6.5V7.5ZM5.08139 4.27735L6.0189 2.87108L5.18685 2.31638L4.24934 3.72265L5.08139 4.27735ZM6.71228 2.5H9.28512V1.5H6.71228V2.5ZM9.97849 2.87108L10.916 4.27735L11.7481 3.72265L10.8105 2.31638L9.97849 2.87108ZM9.28512 2.5C9.56375 2.5 9.82394 2.63925 9.97849 2.87108L10.8105 2.31638C10.4705 1.80635 9.8981 1.5 9.28512 1.5V2.5ZM6.0189 2.87108C6.17346 2.63925 6.43365 2.5 6.71228 2.5V1.5C6.0993 1.5 5.52687 1.80635 5.18685 2.31638L6.0189 2.87108ZM3.9987 4.5H11.9987V3.5H3.9987V4.5ZM14.1654 6.66667V11.3333H15.1654V6.66667H14.1654ZM11.9987 13.5H3.9987V14.5H11.9987V13.5ZM1.83203 11.3333V6.66667H0.832031V11.3333H1.83203ZM3.9987 13.5C2.80208 13.5 1.83203 12.53 1.83203 11.3333H0.832031C0.832031 13.0822 2.2498 14.5 3.9987 14.5V13.5ZM14.1654 11.3333C14.1654 12.53 13.1953 13.5 11.9987 13.5V14.5C13.7476 14.5 15.1654 13.0822 15.1654 11.3333H14.1654ZM11.9987 4.5C13.1953 4.5 14.1654 5.47005 14.1654 6.66667H15.1654C15.1654 4.91777 13.7476 3.5 11.9987 3.5V4.5ZM3.9987 3.5C2.2498 3.5 0.832031 4.91777 0.832031 6.66667H1.83203C1.83203 5.47005 2.80208 4.5 3.9987 4.5V3.5Z" fill="#FEFEFE"/>
</svg>
