<svg width="26" height="26" viewBox="0 0 26 26" fill="none" xmlns="http://www.w3.org/2000/svg">
<g clip-path="url(#clip0_147_3968)">
<path d="M8.125 4.87698V6.50198H23.5625V9.71872L21.7598 15.4395H7.61373L5.58248 0.8125H0.8125V2.4375H4.16752L6.19877 17.0645H22.9515L25.1875 9.96867V4.87698H8.125ZM8.98747 18.705C8.12582 18.706 7.29974 19.0487 6.69046 19.658C6.08117 20.2672 5.73845 21.0933 5.73747 21.955C5.73747 22.8169 6.07988 23.6436 6.68937 24.2531C7.29887 24.8626 8.12551 25.205 8.98747 25.205C9.84942 25.205 10.6761 24.8626 11.2856 24.2531C11.8951 23.6436 12.2375 22.8169 12.2375 21.955C12.2365 21.0933 11.8938 20.2672 11.2845 19.6579C10.6752 19.0487 9.84912 18.7059 8.98747 18.705ZM8.98747 23.58C8.66607 23.58 8.3519 23.4847 8.08467 23.3061C7.81744 23.1276 7.60916 22.8738 7.48617 22.5768C7.36317 22.2799 7.33099 21.9532 7.39369 21.6379C7.45639 21.3227 7.61116 21.0332 7.83842 20.8059C8.06568 20.5787 8.35523 20.4239 8.67045 20.3612C8.98567 20.2985 9.3124 20.3307 9.60933 20.4537C9.90626 20.5767 10.16 20.7849 10.3386 21.0522C10.5172 21.3194 10.6125 21.6336 10.6125 21.955C10.612 22.3858 10.4406 22.7988 10.136 23.1035C9.83132 23.4081 9.41829 23.5795 8.98747 23.58ZM20.3625 18.705C19.5008 18.706 18.6747 19.0487 18.0655 19.658C17.4562 20.2672 17.1135 21.0933 17.1125 21.955C17.1125 22.8169 17.4549 23.6436 18.0644 24.2531C18.6739 24.8626 19.5005 25.205 20.3625 25.205C21.2244 25.205 22.0511 24.8626 22.6606 24.2531C23.2701 23.6436 23.6125 22.8169 23.6125 21.955C23.6115 21.0933 23.2688 20.2672 22.6595 19.6579C22.0502 19.0487 21.2241 18.7059 20.3625 18.705ZM20.3625 23.58C20.0411 23.58 19.7269 23.4847 19.4597 23.3061C19.1924 23.1276 18.9842 22.8738 18.8612 22.5768C18.7382 22.2799 18.706 21.9532 18.7687 21.6379C18.8314 21.3227 18.9862 21.0332 19.2134 20.8059C19.4407 20.5787 19.7302 20.4239 20.0454 20.3612C20.3607 20.2985 20.6874 20.3307 20.9843 20.4537C21.2813 20.5767 21.535 20.7849 21.7136 21.0522C21.8922 21.3194 21.9875 21.6336 21.9875 21.955C21.987 22.3858 21.8156 22.7988 21.511 23.1035C21.2063 23.4081 20.7933 23.5795 20.3625 23.58Z" fill="white"/>
</g>
<defs>
<clipPath id="clip0_147_3968">
<rect width="26" height="26" fill="white"/>
</clipPath>
</defs>
</svg>
