<svg width="17" height="16" viewBox="0 0 17 16" fill="none" xmlns="http://www.w3.org/2000/svg">
<path d="M2.44824 11.5H14.4482C14.5569 11.5 14.6625 11.4646 14.7493 11.3992C14.836 11.3338 14.8991 11.2419 14.9289 11.1375L16.9289 4.13745C16.9502 4.06304 16.9539 3.9847 16.9398 3.90861C16.9256 3.83252 16.894 3.76075 16.8474 3.69895C16.8008 3.63716 16.7405 3.58703 16.6712 3.5525C16.602 3.51798 16.5256 3.50001 16.4482 3.5H4.38184L3.94324 0.4292C3.9262 0.310064 3.86676 0.201072 3.77583 0.122231C3.6849 0.0433901 3.56859 -9.15021e-06 3.44824 1.44707e-09H1.44824C1.31563 1.44707e-09 1.18846 0.0526784 1.09469 0.146447C1.00092 0.240215 0.948242 0.367392 0.948242 0.5C0.948242 0.632608 1.00092 0.759785 1.09469 0.853553C1.18846 0.947322 1.31563 1 1.44824 1H3.01464C3.14494 1.91245 4.23464 9.538 4.37184 10.5H2.44824C2.05042 10.5 1.66889 10.658 1.38758 10.9393C1.10628 11.2206 0.948242 11.6022 0.948242 12C0.948242 12.3978 1.10628 12.7794 1.38758 13.0607C1.66889 13.342 2.05042 13.5 2.44824 13.5H3.62379C3.50966 13.7336 3.44965 13.99 3.44824 14.25C3.44824 14.7141 3.63262 15.1592 3.96081 15.4874C4.28899 15.8156 4.73411 16 5.19824 16C5.66237 16 6.10749 15.8156 6.43568 15.4874C6.76387 15.1592 6.94824 14.7141 6.94824 14.25C6.94683 13.99 6.88683 13.7336 6.77269 13.5H10.6238C10.5097 13.7336 10.4497 13.99 10.4482 14.25C10.4482 14.7141 10.6326 15.1592 10.9608 15.4874C11.289 15.8156 11.7341 16 12.1982 16C12.6624 16 13.1075 15.8156 13.4357 15.4874C13.7639 15.1592 13.9482 14.7141 13.9482 14.25C13.9468 13.99 13.8868 13.7336 13.7727 13.5H15.9482C16.0809 13.5 16.208 13.4473 16.3018 13.3536C16.3956 13.2598 16.4482 13.1326 16.4482 13C16.4482 12.8674 16.3956 12.7402 16.3018 12.6464C16.208 12.5527 16.0809 12.5 15.9482 12.5H2.44824C2.31563 12.5 2.18846 12.4473 2.09469 12.3536C2.00092 12.2598 1.94824 12.1326 1.94824 12C1.94824 11.8674 2.00092 11.7402 2.09469 11.6464C2.18846 11.5527 2.31563 11.5 2.44824 11.5ZM4.52464 4.5H15.7854L14.071 10.5H5.38184L4.52464 4.5ZM5.94824 14.25C5.94824 14.3983 5.90426 14.5433 5.82184 14.6667C5.73943 14.79 5.6223 14.8861 5.48525 14.9429C5.34821 14.9997 5.19741 15.0145 5.05192 14.9856C4.90644 14.9566 4.7728 14.8852 4.66791 14.7803C4.56302 14.6754 4.49159 14.5418 4.46265 14.3963C4.43371 14.2508 4.44857 14.1 4.50533 13.963C4.5621 13.8259 4.65823 13.7088 4.78156 13.6264C4.9049 13.544 5.04991 13.5 5.19824 13.5C5.39709 13.5002 5.58772 13.5793 5.72832 13.7199C5.86893 13.8605 5.94802 14.0512 5.94824 14.25ZM12.9482 14.25C12.9482 14.3983 12.9043 14.5433 12.8218 14.6667C12.7394 14.79 12.6223 14.8861 12.4853 14.9429C12.3482 14.9997 12.1974 15.0145 12.0519 14.9856C11.9064 14.9566 11.7728 14.8852 11.6679 14.7803C11.563 14.6754 11.4916 14.5418 11.4627 14.3963C11.4337 14.2508 11.4486 14.1 11.5053 13.963C11.5621 13.8259 11.6582 13.7088 11.7816 13.6264C11.9049 13.544 12.0499 13.5 12.1982 13.5C12.3971 13.5002 12.5877 13.5793 12.7283 13.7199C12.8689 13.8605 12.948 14.0512 12.9482 14.25Z" fill="#868E96"/>
</svg>
