<svg width="87" height="48" viewBox="0 0 87 48" fill="none" xmlns="http://www.w3.org/2000/svg">
<path d="M62.0647 39.9673H46.4812" stroke="#FF6F00" stroke-width="2.6322" stroke-miterlimit="10" stroke-linecap="square"/>
<path d="M81.138 39.9674H85.3508V33.1485V30.221C85.3508 28.6591 84.5564 27.2132 83.2533 26.3653L78.2284 23.1165L76.1935 13.861C75.8543 12.2902 74.4619 11.1656 72.8465 11.1656H63.0733V1.17822H16.7156V39.9674" stroke="#FF6F00" stroke-width="2.6322" stroke-miterlimit="10" stroke-linecap="square"/>
<path d="M27.408 39.9673H16.7156" stroke="#FF6F00" stroke-width="2.6322" stroke-miterlimit="10" stroke-linecap="square"/>
<path d="M71.7308 15.8066L73.498 24.0089H63.0823V15.8066H71.7308Z" stroke="#FF6F00" stroke-width="2.6322" stroke-miterlimit="10" stroke-linecap="square"/>
<path d="M83.3157 33.1484H85.3506" stroke="#FF6F00" stroke-width="2.6322" stroke-miterlimit="10" stroke-linecap="square"/>
<path d="M41.0322 41.0613C41.6372 37.3244 39.0983 33.8047 35.3614 33.1997C31.6246 32.5948 28.1049 35.1337 27.4999 38.8706C26.895 42.6074 29.4339 46.1271 33.1707 46.7321C36.9076 47.337 40.4273 44.7981 41.0322 41.0613Z" stroke="#FF6F00" stroke-width="2.6322" stroke-miterlimit="10" stroke-linecap="square"/>
<path d="M75.5986 41.5389C76.4655 37.8539 74.181 34.1639 70.496 33.297C66.811 32.43 63.121 34.7145 62.254 38.3995C61.3871 42.0845 63.6716 45.7746 67.3566 46.6415C71.0416 47.5084 74.7316 45.2239 75.5986 41.5389Z" stroke="#FF6F00" stroke-width="2.6322" stroke-miterlimit="10" stroke-linecap="square"/>
<path d="M71.0345 39.9674C71.0345 41.1277 70.0973 42.0738 68.9281 42.0738C67.7679 42.0738 66.8218 41.1367 66.8218 39.9674C66.8218 38.8072 67.7589 37.8611 68.9281 37.8611C70.0884 37.8611 71.0345 38.8072 71.0345 39.9674Z" fill="#FF6F00"/>
<path d="M34.2714 42.0738C35.4347 42.0738 36.3778 41.1308 36.3778 39.9674C36.3778 38.8041 35.4347 37.8611 34.2714 37.8611C33.1081 37.8611 32.165 38.8041 32.165 39.9674C32.165 41.1308 33.1081 42.0738 34.2714 42.0738Z" fill="#FF6F00"/>
<path d="M57.8342 24.009H16.7156" stroke="#FF6F00" stroke-width="2.6322" stroke-miterlimit="10" stroke-linecap="square"/>
<path d="M34.2715 13.1023H45.0443" stroke="#FF6F00" stroke-width="2.6322" stroke-miterlimit="10" stroke-linecap="square"/>
<path d="M42.4917 9.30908L45.6334 13.1023L42.4917 16.8955" stroke="#FF6F00" stroke-width="2.6322" stroke-miterlimit="10" stroke-linecap="square"/>
<path d="M11.2443 39.9673H1.64966" stroke="#FF6F00" stroke-width="2.6322" stroke-miterlimit="10" stroke-linecap="square"/>
<path d="M11.2442 33.1484H4.77344" stroke="#FF6F00" stroke-width="2.6322" stroke-miterlimit="10" stroke-linecap="square"/>
<path d="M11.2443 26.3206H8.00439" stroke="#FF6F00" stroke-width="2.6322" stroke-miterlimit="10" stroke-linecap="square"/>
</svg>
