<svg width="50" height="52" viewBox="0 0 50 52" fill="none" xmlns="http://www.w3.org/2000/svg">
<path d="M25.0001 42.3072C23.4322 42.3072 22.239 39.9268 20.8237 39.4405C19.353 38.9398 17.0567 40.1227 15.8357 39.1938C14.6009 38.2576 14.9686 35.5942 14.0736 34.3024C13.1856 33.0251 10.6465 32.5751 10.1748 31.0366C9.71693 29.5561 11.4998 27.6401 11.4998 25.9927C11.4998 24.3526 9.71693 22.4366 10.1748 20.9489C10.6535 19.4103 13.1856 18.9604 14.0736 17.6831C14.9686 16.3913 14.6078 13.7351 15.8357 12.7916C17.0567 11.8627 19.3599 13.0384 20.8237 12.5449C22.239 12.0659 23.4322 9.67822 25.0001 9.67822C26.5679 9.67822 27.7612 12.0586 29.1764 12.5449C30.6471 13.0456 32.9434 11.8627 34.1644 12.7916C35.3993 13.7278 35.0316 16.3913 35.9265 17.6831C36.8145 18.9604 39.3536 19.4103 39.8253 20.9489C40.2832 22.4294 38.5003 24.3453 38.5003 25.9927C38.5003 27.6329 40.2832 29.5488 39.8253 31.0366C39.3466 32.5751 36.8145 33.0251 35.9265 34.3024C35.0316 35.5942 35.3923 38.2503 34.1644 39.1938C32.9434 40.1227 30.6402 38.947 29.1764 39.4405C27.7612 39.9195 26.5749 42.3072 25.0001 42.3072Z" stroke="#FF6F00" stroke-width="2.6322" stroke-miterlimit="10"/>
<path d="M30.7511 19.9836L19.2489 32.0163" stroke="#FF6F00" stroke-width="2.6322" stroke-miterlimit="10"/>
<path d="M22.8563 21.994C22.8563 22.9665 22.1001 23.7575 21.1705 23.7575C20.2409 23.7575 19.4847 22.9665 19.4847 21.994C19.4847 21.0215 20.2409 20.2305 21.1705 20.2305C22.1001 20.2305 22.8563 21.0143 22.8563 21.994Z" stroke="#FF6F00" stroke-width="2.6322" stroke-miterlimit="10"/>
<path d="M28.8364 31.7695C29.7675 31.7695 30.5222 30.9799 30.5222 30.006C30.5222 29.032 29.7675 28.2424 28.8364 28.2424C27.9054 28.2424 27.1506 29.032 27.1506 30.006C27.1506 30.9799 27.9054 31.7695 28.8364 31.7695Z" stroke="#FF6F00" stroke-width="2.6322" stroke-miterlimit="10"/>
<path d="M25 2C12.3323 2 2.05798 12.7481 2.05798 26C2.05798 31.0584 3.55647 35.7466 6.11637 39.622L2.49504 49.6154L12.0687 45.8198C15.7524 48.4542 20.2063 50 25 50C37.6678 50 47.9421 39.2519 47.9421 26C47.949 12.7409 37.6747 2 25 2Z" stroke="#FF6F00" stroke-width="2.6322" stroke-miterlimit="10"/>
</svg>
