<svg width="18" height="18" viewBox="0 0 18 18" fill="none" xmlns="http://www.w3.org/2000/svg">
<path fill-rule="evenodd" clip-rule="evenodd" d="M17.5332 8.9883C17.5332 9.56539 17.4745 10.1417 17.3591 10.7034C17.2465 11.2518 17.0799 11.7902 16.8615 12.3049C16.6482 12.8105 16.3836 13.2977 16.0744 13.7521C15.7698 14.2036 15.419 14.6271 15.0335 15.0133C14.6473 15.3977 14.2222 15.7476 13.771 16.0535C13.3151 16.3605 12.8272 16.6247 12.3213 16.8391C11.8059 17.0562 11.2662 17.2227 10.7183 17.335C10.1558 17.4507 9.57743 17.5098 8.9995 17.5098C8.42114 17.5098 7.84278 17.4507 7.28109 17.335C6.73232 17.2227 6.19271 17.0562 5.67767 16.8391C5.17182 16.6247 4.68344 16.3605 4.2276 16.0535C3.77633 15.7476 3.35131 15.3977 2.96587 15.0133C2.58003 14.6271 2.22915 14.2036 1.92414 13.7521C1.61663 13.2977 1.35159 12.8105 1.13743 12.3049C0.91906 11.7902 0.751992 11.2518 0.639065 10.7034C0.524903 10.1417 0.466553 9.56539 0.466553 8.9883C0.466553 8.41077 0.52487 7.83325 0.639099 7.27273C0.752025 6.72432 0.919094 6.18509 1.13747 5.67123C1.35163 5.16528 1.61666 4.67764 1.92418 4.22325C2.22919 3.77139 2.58006 3.34862 2.9659 2.96207C3.35134 2.57759 3.77636 2.22852 4.22763 1.92312C4.68348 1.61478 5.17186 1.35059 5.67771 1.13587C6.19274 0.918218 6.73232 0.751391 7.28112 0.639894C7.84282 0.525063 8.42118 0.466797 8.99954 0.466797C9.57746 0.466797 10.1558 0.525063 10.7184 0.639894C11.2663 0.751424 11.8059 0.918251 12.3214 1.13587C12.8272 1.35056 13.3152 1.61478 13.771 1.92312C14.2223 2.22852 14.6473 2.57759 15.0336 2.96207C15.419 3.34862 15.7699 3.77139 16.0745 4.22325C16.3836 4.67764 16.6482 5.16531 16.8615 5.67123C17.0799 6.18509 17.2465 6.72432 17.3591 7.27273C17.4745 7.83325 17.5332 8.41077 17.5332 8.9883ZM5.89014 2.40618C3.85793 3.36445 2.34119 5.23434 1.86824 7.48787C2.06036 7.48954 5.09718 7.52783 8.5961 6.59951C7.3348 4.36178 5.98723 2.53562 5.89014 2.40618ZM9.19987 7.72008C5.44761 8.84181 1.84699 8.7611 1.71783 8.75613C1.71573 8.83434 1.71199 8.91005 1.71199 8.98829C1.71199 10.8577 2.41827 12.562 3.57917 13.8507C3.57666 13.8469 5.57096 10.3139 9.50365 9.04406C9.59864 9.01244 9.69533 8.98412 9.79116 8.95667C9.60826 8.54311 9.40863 8.12867 9.19987 7.72008ZM13.8122 3.52672C12.5292 2.39701 10.8446 1.71176 8.99948 1.71176C8.40736 1.71176 7.83274 1.78333 7.2823 1.91564C7.39145 2.06212 8.7603 3.87541 10.0066 6.16053C12.7563 5.13115 13.7943 3.55333 13.8122 3.52672ZM10.2879 10.1625C10.2717 10.1679 10.2554 10.1725 10.2396 10.1783C5.93984 11.6751 4.53571 14.6915 4.52052 14.7245C5.75769 15.6852 7.30944 16.2648 8.99953 16.2648C10.0087 16.2648 10.97 16.0596 11.8446 15.6881C11.7367 15.0523 11.3134 12.8238 10.2879 10.1625ZM13.0718 15.0232C14.7081 13.9206 15.8702 12.1697 16.1944 10.1416C16.0444 10.0934 14.0055 9.44886 11.6533 9.82544C12.6092 12.4485 12.9976 14.5847 13.0718 15.0232ZM10.5675 7.24487C10.7367 7.5919 10.9005 7.9451 11.0517 8.30007C11.1055 8.42741 11.158 8.55225 11.2092 8.67705C13.7127 8.36247 16.179 8.89174 16.2845 8.91335C16.2678 7.18828 15.6498 5.60505 14.6273 4.36555C14.6136 4.38506 13.4448 6.07148 10.5675 7.24487Z" fill="white"/>
</svg>
