<svg width="24" height="24" viewBox="0 0 24 24" fill="none" xmlns="http://www.w3.org/2000/svg">
<path fill-rule="evenodd" clip-rule="evenodd" d="M7.5 3.75C6.50544 3.75 5.55161 4.14509 4.84835 4.84835C4.14509 5.55161 3.75 6.50544 3.75 7.5V16.504C3.75 17.4975 4.14467 18.4503 4.84718 19.1528C5.54969 19.8553 6.5025 20.25 7.496 20.25H16.504C17.4974 20.25 18.45 19.8554 19.1525 19.1531C19.855 18.4508 20.2497 17.4983 20.25 16.505C20.25 16.5049 20.25 16.5051 20.25 16.505V7.496C20.25 7.00407 20.1531 6.51695 19.9649 6.06247C19.7766 5.60798 19.5007 5.19503 19.1528 4.84718C18.805 4.49933 18.392 4.2234 17.9375 4.03515C17.483 3.84689 16.9959 3.75 16.504 3.75H7.5ZM7.5 2.25C6.10761 2.25 4.77226 2.80312 3.78769 3.78769C2.80312 4.77226 2.25 6.10761 2.25 7.5V16.504C2.25 17.8953 2.8027 19.2297 3.78652 20.2135C4.77033 21.1973 6.10467 21.75 7.496 21.75H16.504C17.8951 21.75 19.2293 21.1975 20.2131 20.2139C21.1969 19.2303 21.7497 17.8963 21.75 16.5052V7.496C21.75 6.80709 21.6143 6.12492 21.3507 5.48844C21.087 4.85197 20.7006 4.27365 20.2135 3.78652C19.7263 3.29938 19.148 2.91296 18.5116 2.64933C17.8751 2.38569 17.1929 2.25 16.504 2.25H7.5Z" fill="#858585"/>
<path fill-rule="evenodd" clip-rule="evenodd" d="M10.3501 12.8999C10.3501 12.4857 10.6859 12.1499 11.1001 12.1499H16.5001C16.9143 12.1499 17.2501 12.4857 17.2501 12.8999C17.2501 13.3141 16.9143 13.6499 16.5001 13.6499H11.1001C10.6859 13.6499 10.3501 13.3141 10.3501 12.8999Z" fill="#858585"/>
<path fill-rule="evenodd" clip-rule="evenodd" d="M13.1472 8.6472C13.7858 8.00864 14.6518 7.6499 15.5549 7.6499H16.4999C16.9141 7.6499 17.2499 7.98569 17.2499 8.3999C17.2499 8.81412 16.9141 9.1499 16.4999 9.1499H15.5549C15.0497 9.1499 14.5651 9.35061 14.2079 9.70786C13.8506 10.0651 13.6499 10.5497 13.6499 11.0549V20.9999C13.6499 21.4141 13.3141 21.7499 12.8999 21.7499C12.4857 21.7499 12.1499 21.4141 12.1499 20.9999V11.0549C12.1499 10.1518 12.5086 9.28577 13.1472 8.6472Z" fill="#858585"/>
</svg>
