<svg width="24" height="20" viewBox="0 0 24 20" fill="none" xmlns="http://www.w3.org/2000/svg">
<path d="M17.0781 0.25C14.9809 0.25 13.1446 1.15187 12 2.67633C10.8554 1.15187 9.01914 0.25 6.92188 0.25C5.25242 0.251882 3.65188 0.915905 2.47139 2.09639C1.2909 3.27688 0.626882 4.87742 0.625 6.54688C0.625 13.6562 11.1662 19.4108 11.6151 19.6484C11.7334 19.7121 11.8656 19.7454 12 19.7454C12.1344 19.7454 12.2666 19.7121 12.3849 19.6484C12.8338 19.4108 23.375 13.6562 23.375 6.54688C23.3731 4.87742 22.7091 3.27688 21.5286 2.09639C20.3481 0.915905 18.7476 0.251882 17.0781 0.25ZM12 18.0031C10.1455 16.9225 2.25 11.9998 2.25 6.54688C2.25161 5.30831 2.74434 4.12094 3.62014 3.24514C4.49594 2.36934 5.68331 1.87661 6.92188 1.875C8.89727 1.875 10.5558 2.92719 11.2484 4.61719C11.3097 4.76621 11.4138 4.89367 11.5476 4.98337C11.6814 5.07307 11.8389 5.12096 12 5.12096C12.1611 5.12096 12.3186 5.07307 12.4524 4.98337C12.5862 4.89367 12.6903 4.76621 12.7516 4.61719C13.4442 2.92414 15.1027 1.875 17.0781 1.875C18.3167 1.87661 19.5041 2.36934 20.3799 3.24514C21.2557 4.12094 21.7484 5.30831 21.75 6.54688C21.75 11.9916 13.8525 16.9215 12 18.0031Z" fill="white"/>
</svg>
