<svg width="17" height="16" viewBox="0 0 17 16" fill="none" xmlns="http://www.w3.org/2000/svg">
<path fill-rule="evenodd" clip-rule="evenodd" d="M9.07326 1.68892C9.98555 0.764563 11.1035 0.200195 12.4203 0.200195C14.8541 0.200195 16.8169 2.26315 16.8421 4.77659C16.8641 7.02659 16.0537 9.07034 14.5085 10.9927C13.2551 12.5521 11.5823 13.9792 9.27859 15.575C8.84618 15.8752 8.2779 15.8752 7.84608 15.5754C5.54168 13.9793 3.86874 12.5521 2.6153 10.9927C1.07012 9.07034 0.259753 7.02657 0.281938 4.77641C0.307187 2.26315 2.27002 0.200195 4.70382 0.200195C6.02056 0.200195 7.13853 0.764563 8.05083 1.68892C8.22595 1.86636 8.38654 2.05042 8.53295 2.23753L8.56204 2.27502L8.59113 2.23753C8.72709 2.06379 8.87527 1.89267 9.03595 1.72705L9.07326 1.68892ZM15.5683 4.78955C15.5501 2.97777 14.1441 1.5 12.4202 1.5C11.4757 1.5 10.6622 1.91063 9.97075 2.61125C9.72214 2.86315 9.50823 3.13456 9.3308 3.40519C9.26936 3.4989 9.21724 3.5851 9.17455 3.66119C9.15868 3.68949 9.14703 3.71109 9.13962 3.7252L9.12452 3.7549C8.88361 4.2197 8.22469 4.21496 7.99231 3.74067L7.98438 3.7252C7.97994 3.71673 7.97397 3.70557 7.96647 3.69189L7.93858 3.64196C7.89801 3.57068 7.84952 3.49109 7.7932 3.40519C7.61577 3.13456 7.40186 2.86315 7.15326 2.61125C6.46177 1.91063 5.64835 1.5 4.70378 1.5C2.97995 1.5 1.5739 2.97777 1.5557 4.78942C1.53676 6.71074 2.23336 8.46761 3.60016 10.1681C4.73813 11.5838 6.28606 12.9132 8.42999 14.4082L8.562 14.5L8.62873 14.4537C10.8062 12.9403 12.374 11.5982 13.5235 10.1681C14.8904 8.46758 15.5871 6.71069 15.5683 4.78955Z" fill="#868E96"/>
</svg>
