<svg width="25" height="24" viewBox="0 0 25 24" fill="none" xmlns="http://www.w3.org/2000/svg">
<path fill-rule="evenodd" clip-rule="evenodd" d="M5.806 10.25C5.63721 10.25 5.5 10.3872 5.5 10.556V17.944C5.5 17.9842 5.50792 18.024 5.52329 18.0611C5.53867 18.0982 5.56121 18.132 5.58963 18.1604C5.61804 18.1888 5.65177 18.2113 5.6889 18.2267C5.72602 18.2421 5.76582 18.25 5.806 18.25H7.694C7.86279 18.25 8 18.1128 8 17.944V10.556C8 10.3872 7.86279 10.25 7.694 10.25H5.806ZM4 10.556C4 9.55879 4.80879 8.75 5.806 8.75H7.694C8.69121 8.75 9.5 9.55879 9.5 10.556V17.944C9.5 18.9412 8.69121 19.75 7.694 19.75H5.806C5.56883 19.75 5.33399 19.7033 5.11487 19.6125C4.89576 19.5218 4.69667 19.3887 4.52897 19.221C4.36126 19.0533 4.22823 18.8542 4.13747 18.6351C4.04671 18.416 4 18.1812 4 17.944V10.556Z" fill="#858585"/>
<path fill-rule="evenodd" clip-rule="evenodd" d="M8.59217 11.679C7.93273 11.1776 7.80463 10.2365 8.30605 9.57706L11.9558 4.7771C11.9558 4.77714 11.9559 4.77707 11.9558 4.7771C12.251 4.38889 12.6301 4.0716 13.0656 3.85012C13.5012 3.6286 13.9814 3.50884 14.4705 3.50047C14.9595 3.4921 15.4436 3.59535 15.8866 3.80191C16.3291 4.00831 16.7186 4.31222 17.0266 4.68996C17.513 5.2854 17.7737 6.02962 17.7737 6.79121V8.59599H19.3704C19.9155 8.59599 20.4515 8.73173 20.9308 8.9903C21.4097 9.24868 21.8166 9.62134 22.1167 10.074L22.4458 10.5701C22.7117 10.9714 22.8875 11.4261 22.9609 11.9013C23.0344 12.3765 23.0042 12.8622 22.8725 13.3247L21.5131 18.0956C21.3168 18.7845 20.9031 19.3933 20.3316 19.828C19.7597 20.263 19.0614 20.4997 18.3418 20.5H12.0507C12.0507 20.5 12.0508 20.5 12.0507 20.5C11.595 20.5 11.1446 20.4051 10.7277 20.2218C10.3109 20.0384 9.93704 19.7707 9.629 19.4362L8.39609 18.0959C7.83525 17.4861 7.87488 16.5372 8.4846 15.9764C8.77289 15.7112 9.13701 15.5803 9.50008 15.5804V17.0804L10.7324 18.4201C10.9009 18.603 11.1049 18.749 11.3317 18.8487C11.5585 18.9485 11.8033 19 12.0507 19H18.3412C18.7317 18.9998 19.1115 18.8714 19.4235 18.6342C19.7354 18.3969 19.9625 18.0636 20.0706 17.6846L21.4299 12.9138C21.5024 12.6594 21.519 12.392 21.4785 12.1304C21.4381 11.8688 21.3416 11.6193 21.1958 11.3993L20.8667 10.9032C20.7022 10.6549 20.4796 10.4512 20.2186 10.3104C19.9576 10.1696 19.6663 10.096 19.3704 10.096H16.2737V6.79121C16.2737 6.37092 16.1296 5.96275 15.8646 5.63843C15.6987 5.43492 15.4895 5.27184 15.2526 5.16135C15.0157 5.05085 14.7571 4.99578 14.4962 5.00025C14.2352 5.00472 13.9787 5.0686 13.7456 5.18715C13.5125 5.30569 13.3089 5.47584 13.1499 5.68491L9.50008 10.485V11.985C9.18327 11.9853 8.86382 11.8856 8.59217 11.679Z" fill="#858585"/>
</svg>
