<svg width="24" height="24" viewBox="0 0 24 24" fill="none" xmlns="http://www.w3.org/2000/svg">
<path fill-rule="evenodd" clip-rule="evenodd" d="M7.5 3.75C6.50544 3.75 5.55161 4.14509 4.84835 4.84835C4.14509 5.55161 3.75 6.50544 3.75 7.5V16.504C3.75 17.4975 4.14467 18.4503 4.84718 19.1528C5.54969 19.8553 6.5025 20.25 7.496 20.25H16.504C17.4974 20.25 18.45 19.8554 19.1525 19.1531C19.855 18.4508 20.2497 17.4983 20.25 16.505C20.25 16.5049 20.25 16.5051 20.25 16.505V7.496C20.25 7.00407 20.1531 6.51695 19.9649 6.06247C19.7766 5.60798 19.5007 5.19503 19.1528 4.84718C18.805 4.49933 18.392 4.2234 17.9375 4.03515C17.483 3.84689 16.9959 3.75 16.504 3.75H7.5ZM7.5 2.25C6.10761 2.25 4.77226 2.80312 3.78769 3.78769C2.80312 4.77226 2.25 6.10761 2.25 7.5V16.504C2.25 17.8953 2.8027 19.2297 3.78652 20.2135C4.77033 21.1973 6.10467 21.75 7.496 21.75H16.504C17.8951 21.75 19.2293 21.1975 20.2131 20.2139C21.1969 19.2303 21.7497 17.8963 21.75 16.5052V7.496C21.75 6.80709 21.6143 6.12492 21.3507 5.48844C21.087 4.85197 20.7006 4.27365 20.2135 3.78652C19.7263 3.29938 19.148 2.91296 18.5116 2.64933C17.8751 2.38569 17.1929 2.25 16.504 2.25H7.5Z" fill="#858585"/>
<path fill-rule="evenodd" clip-rule="evenodd" d="M8.12012 10.3501C8.53433 10.3501 8.87012 10.6859 8.87012 11.1001V16.5001C8.87012 16.9143 8.53433 17.2501 8.12012 17.2501C7.7059 17.2501 7.37012 16.9143 7.37012 16.5001V11.1001C7.37012 10.6859 7.7059 10.3501 8.12012 10.3501Z" fill="#858585"/>
<path fill-rule="evenodd" clip-rule="evenodd" d="M13.9692 11.8499C13.5714 11.8499 13.1899 12.0079 12.9086 12.2892C12.6273 12.5705 12.4692 12.952 12.4692 13.3499V16.4999C12.4692 16.9141 12.1335 17.2499 11.7192 17.2499C11.305 17.2499 10.9692 16.9141 10.9692 16.4999V13.3499C10.9692 12.5542 11.2853 11.7911 11.8479 11.2285C12.4105 10.6659 13.1736 10.3499 13.9692 10.3499C14.7649 10.3499 15.5279 10.6659 16.0906 11.2285C16.6532 11.7911 16.9692 12.5542 16.9692 13.3499V16.4999C16.9692 16.9141 16.6335 17.2499 16.2192 17.2499C15.805 17.2499 15.4692 16.9141 15.4692 16.4999V13.3499C15.4692 12.952 15.3112 12.5705 15.0299 12.2892C14.7486 12.0079 14.3671 11.8499 13.9692 11.8499Z" fill="#858585"/>
<path fill-rule="evenodd" clip-rule="evenodd" d="M8.11471 7.0879C8.24312 7.08733 8.37037 7.11213 8.48916 7.16087C8.60794 7.20961 8.71594 7.28133 8.80694 7.37193C8.89794 7.46253 8.97015 7.57021 9.01941 7.68878C9.06868 7.80735 9.09404 7.93449 9.09404 8.0629C9.09404 8.25556 9.03696 8.44389 8.93002 8.60413C8.82308 8.76437 8.67106 8.88934 8.49315 8.96326C8.31524 9.03719 8.11942 9.05674 7.93042 9.01947C7.74141 8.9822 7.56767 8.88977 7.43114 8.75385C7.29462 8.61792 7.20142 8.4446 7.16331 8.25576C7.1252 8.06691 7.14389 7.87101 7.21702 7.69278C7.29015 7.51455 7.41445 7.36197 7.57421 7.25432C7.73398 7.14667 7.92206 7.08876 8.11471 7.0879Z" fill="#858585"/>
</svg>
