<svg width="26" height="26" viewBox="0 0 26 26" fill="none" xmlns="http://www.w3.org/2000/svg">
<path d="M4.33333 19.5H21.6667C22.2625 19.5 22.75 19.0125 22.75 18.4167C22.75 17.8208 22.2625 17.3333 21.6667 17.3333H4.33333C3.7375 17.3333 3.25 17.8208 3.25 18.4167C3.25 19.0125 3.7375 19.5 4.33333 19.5ZM4.33333 14.0833H21.6667C22.2625 14.0833 22.75 13.5958 22.75 13C22.75 12.4042 22.2625 11.9167 21.6667 11.9167H4.33333C3.7375 11.9167 3.25 12.4042 3.25 13C3.25 13.5958 3.7375 14.0833 4.33333 14.0833ZM3.25 7.58333C3.25 8.17917 3.7375 8.66667 4.33333 8.66667H21.6667C22.2625 8.66667 22.75 8.17917 22.75 7.58333C22.75 6.9875 22.2625 6.5 21.6667 6.5H4.33333C3.7375 6.5 3.25 6.9875 3.25 7.58333Z" fill="white"/>
</svg>
