<svg width="24" height="24" viewBox="0 0 24 24" fill="none" xmlns="http://www.w3.org/2000/svg">
<path fill-rule="evenodd" clip-rule="evenodd" d="M5 3.74414C4.66848 3.74414 4.35054 3.87584 4.11612 4.11026C3.8817 4.34468 3.75 4.66262 3.75 4.99414V14.9941C3.75 15.3257 3.8817 15.6436 4.11612 15.878C4.35054 16.1124 4.66848 16.2441 5 16.2441H7C7.41421 16.2441 7.75 16.5799 7.75 16.9941V19.9921C7.75 20.2079 8.00509 20.3224 8.1664 20.1789L8.16652 20.1788L12.3765 16.4338C12.5138 16.3116 12.6912 16.2441 12.875 16.2441H19C19.3315 16.2441 19.6495 16.1124 19.8839 15.878C20.1183 15.6436 20.25 15.3257 20.25 14.9941V4.99414C20.25 4.66262 20.1183 4.34468 19.8839 4.11026C19.6495 3.87584 19.3315 3.74414 19 3.74414H5ZM3.05546 3.0496C3.57118 2.53387 4.27065 2.24414 5 2.24414H19C19.7293 2.24414 20.4288 2.53387 20.9445 3.0496C21.4603 3.56532 21.75 4.26479 21.75 4.99414V14.9941C21.75 15.7235 21.4603 16.423 20.9445 16.9387C20.4288 17.4544 19.7293 17.7441 19 17.7441H13.1603L9.1636 21.2994C9.16356 21.2994 9.16352 21.2995 9.16348 21.2995C8.03479 22.3038 6.25 21.5023 6.25 19.9921V17.7441H5C4.27065 17.7441 3.57118 17.4544 3.05546 16.9387C2.53973 16.423 2.25 15.7235 2.25 14.9941V4.99414C2.25 4.2648 2.53973 3.56532 3.05546 3.0496Z" fill="#858585"/>
<path fill-rule="evenodd" clip-rule="evenodd" d="M6.25 7.49023C6.25 7.07602 6.58579 6.74023 7 6.74023H17C17.4142 6.74023 17.75 7.07602 17.75 7.49023C17.75 7.90445 17.4142 8.24023 17 8.24023H7C6.58579 8.24023 6.25 7.90445 6.25 7.49023Z" fill="#858585"/>
<path fill-rule="evenodd" clip-rule="evenodd" d="M6.25 11.9902C6.25 11.576 6.58579 11.2402 7 11.2402H14C14.4142 11.2402 14.75 11.576 14.75 11.9902C14.75 12.4044 14.4142 12.7402 14 12.7402H7C6.58579 12.7402 6.25 12.4044 6.25 11.9902Z" fill="#858585"/>
</svg>
