<svg width="45" height="48" viewBox="0 0 45 48" fill="none" xmlns="http://www.w3.org/2000/svg">
<g clip-path="url(#clip0_58_1255)">
<path d="M5.39014 17.8408H8.3546" stroke="#FF6F00" stroke-width="2.6322" stroke-miterlimit="10"/>
<path d="M11.2446 17.8408H14.2091" stroke="#FF6F00" stroke-width="2.6322" stroke-miterlimit="10"/>
<path d="M17.0991 17.8408H20.0636" stroke="#FF6F00" stroke-width="2.6322" stroke-miterlimit="10"/>
<path d="M22.9536 17.8408H25.9181" stroke="#FF6F00" stroke-width="2.6322" stroke-miterlimit="10"/>
<path d="M28.8081 17.8408H31.7658" stroke="#FF6F00" stroke-width="2.6322" stroke-miterlimit="10"/>
<path d="M34.6626 17.8408H37.6203" stroke="#FF6F00" stroke-width="2.6322" stroke-miterlimit="10"/>
<path d="M5.39014 42.3755H8.3546" stroke="#FF6F00" stroke-width="2.6322" stroke-miterlimit="10"/>
<path d="M11.2446 42.3755H14.2091" stroke="#FF6F00" stroke-width="2.6322" stroke-miterlimit="10"/>
<path d="M17.0991 42.3755H20.0636" stroke="#FF6F00" stroke-width="2.6322" stroke-miterlimit="10"/>
<path d="M22.9536 42.3755H25.9181" stroke="#FF6F00" stroke-width="2.6322" stroke-miterlimit="10"/>
<path d="M28.8081 42.3755H31.7658" stroke="#FF6F00" stroke-width="2.6322" stroke-miterlimit="10"/>
<path d="M34.6626 42.3755H37.6203" stroke="#FF6F00" stroke-width="2.6322" stroke-miterlimit="10"/>
<path d="M35.2243 31.4449C35.9644 31.4449 36.5644 30.8449 36.5644 30.1047C36.5644 29.3646 35.9644 28.7646 35.2243 28.7646C34.4841 28.7646 33.8842 29.3646 33.8842 30.1047C33.8842 30.8449 34.4841 31.4449 35.2243 31.4449Z" fill="#FF6F00"/>
<path d="M41.7285 37.4211V43.6682C41.7285 45.57 40.1921 47.1064 38.2903 47.1064H1.28857V13.103H38.2903C40.1921 13.103 41.7285 14.6394 41.7285 16.5413V26.301" stroke="#FF6F00" stroke-width="2.6322" stroke-miterlimit="10" stroke-linecap="square"/>
<path d="M42.6896 33.577H30.5204V26.6328H42.6828C43.2514 26.6328 43.7048 27.0931 43.7048 27.6548V32.555C43.7116 33.1235 43.2581 33.577 42.6896 33.577Z" stroke="#FF6F00" stroke-width="2.6322" stroke-miterlimit="10"/>
<path d="M6.25647 12.7715L25.5932 1.25879L27.5154 5.08958" stroke="#FF6F00" stroke-width="2.6322" stroke-miterlimit="10" stroke-linecap="square"/>
<path d="M34.9603 12.7716L32.5644 7.24194L15.9958 10.4974" stroke="#FF6F00" stroke-width="2.6322" stroke-miterlimit="10" stroke-linecap="square"/>
</g>
<defs>
<clipPath id="clip0_58_1255">
<rect width="44.2098" height="48" fill="white" transform="translate(0.395142)"/>
</clipPath>
</defs>
</svg>
