<svg width="24" height="25" viewBox="0 0 24 25" fill="none" xmlns="http://www.w3.org/2000/svg">
<path d="M12.0001 1.66699C6.01683 1.66699 1.16675 6.51708 1.16675 12.5003C1.16675 18.4836 6.01683 23.3337 12.0001 23.3337C17.9833 23.3337 22.8334 18.4836 22.8334 12.5003C22.8334 6.51708 17.9833 1.66699 12.0001 1.66699Z" stroke="#717171" stroke-width="1.5" stroke-linecap="round" stroke-linejoin="round"/>
<path d="M3.62695 19.3748C3.62695 19.3748 6.0417 16.2917 12 16.2917C17.9584 16.2917 20.3742 19.3748 20.3742 19.3748M12 12.5C12.862 12.5 13.6886 12.1576 14.2981 11.5481C14.9076 10.9386 15.25 10.112 15.25 9.25C15.25 8.38805 14.9076 7.5614 14.2981 6.9519C13.6886 6.34241 12.862 6 12 6C11.1381 6 10.3114 6.34241 9.70194 6.9519C9.09245 7.5614 8.75004 8.38805 8.75004 9.25C8.75004 10.112 9.09245 10.9386 9.70194 11.5481C10.3114 12.1576 11.1381 12.5 12 12.5Z" stroke="#717171" stroke-width="1.5" stroke-linecap="round" stroke-linejoin="round"/>
</svg>
