<svg width="10" height="8" viewBox="0 0 10 8" fill="none" xmlns="http://www.w3.org/2000/svg">
<path d="M7.41284 4.96699C7.30492 5.07158 7.25534 5.22283 7.27992 5.37116L7.65034 7.42116C7.68158 7.59491 7.60825 7.77074 7.46284 7.87116C7.32034 7.97533 7.13076 7.98783 6.97534 7.90449L5.12994 6.94199C5.06577 6.90783 4.99452 6.88949 4.92161 6.88741H4.80869C4.76953 6.89324 4.73119 6.90574 4.69619 6.92491L2.85038 7.89199C2.75913 7.93783 2.65579 7.95408 2.55455 7.93783C2.30788 7.89116 2.1433 7.65616 2.18372 7.40824L2.55455 5.35824C2.57913 5.20866 2.52955 5.05658 2.42163 4.95033L0.91706 3.49199C0.791227 3.36991 0.747478 3.18658 0.804977 3.02116C0.86081 2.85616 1.00331 2.73574 1.17539 2.70866L3.24621 2.40824C3.4037 2.39199 3.54204 2.29616 3.61287 2.15449L4.52536 0.283659C4.54703 0.241992 4.57494 0.203659 4.60869 0.171159L4.64619 0.141992C4.66578 0.120326 4.68828 0.102409 4.71328 0.0878255L4.75869 0.0711589L4.82953 0.0419922H5.00494C5.16161 0.0582422 5.29952 0.151992 5.3716 0.291992L6.29618 2.15449C6.36285 2.29074 6.49243 2.38533 6.64201 2.40824L8.71283 2.70866C8.88782 2.73366 9.03407 2.85449 9.09199 3.02116C9.14657 3.18824 9.09949 3.37158 8.97116 3.49199L7.41284 4.96699Z" fill="#DBDBDB"/>
</svg>
