<svg width="22" height="20" viewBox="0 0 22 20" fill="none" xmlns="http://www.w3.org/2000/svg">
<path fill-rule="evenodd" clip-rule="evenodd" d="M11.0048 1.74756C10.7195 1.74756 10.4589 1.90926 10.3322 2.16487L10.3307 2.16793L8.19483 6.4287C8.08467 6.64845 7.87382 6.80027 7.63048 6.83505L2.89951 7.51133L2.89748 7.51162C2.61239 7.55158 2.37526 7.75107 2.2871 8.02513C2.19895 8.29918 2.2753 8.59951 2.48364 8.79819L2.48496 8.79945L5.89238 12.0648C6.07278 12.2377 6.15524 12.4891 6.1123 12.7352L5.30296 17.3741L5.30257 17.3764C5.25254 17.6581 5.36702 17.9437 5.59775 18.1129C5.82848 18.2821 6.13533 18.3054 6.38897 18.173L6.39183 18.1715L10.6606 15.9666C10.8766 15.8551 11.1332 15.8551 11.3491 15.9667L15.6179 18.1726L15.6206 18.174C15.8743 18.3064 16.1811 18.2831 16.4119 18.1139C16.6426 17.9447 16.7571 17.6591 16.707 17.3774L16.7066 17.3751L15.8973 12.7352C15.8544 12.489 15.9368 12.2377 16.1172 12.0648L19.5246 8.79946L19.526 8.79819C19.7343 8.59951 19.8107 8.29918 19.7225 8.02513C19.6343 7.75107 19.3972 7.55158 19.1121 7.51162L19.1101 7.51133L14.3791 6.83505C14.1358 6.80027 13.9249 6.64845 13.8148 6.4287L11.6774 2.16487C11.5507 1.90927 11.2901 1.74756 11.0048 1.74756ZM8.98907 1.49712C9.36919 0.731702 10.1501 0.247559 11.0048 0.247559C11.8595 0.247559 12.6403 0.731654 13.0205 1.49701L13.0214 1.49878L14.9799 5.40568L19.3203 6.02614L19.3214 6.0263C20.1758 6.14647 20.8862 6.74446 21.1504 7.56581C21.4146 8.38694 21.1861 9.28674 20.5625 9.88245L20.5612 9.88371L17.4437 12.8712L18.1839 17.1151L18.1842 17.1165C18.3336 17.9607 17.9903 18.8165 17.2989 19.3236C16.6076 19.8305 15.6883 19.9007 14.9281 19.5046L14.9265 19.5038L11.0047 17.4772L7.08308 19.5028L7.08124 19.5037C6.32109 19.8996 5.40198 19.8294 4.71073 19.3226C4.01925 18.8155 3.67601 17.9596 3.82546 17.1153L3.82567 17.1141L4.56591 12.8712L1.44843 9.88371L1.4476 9.88291C0.82357 9.2872 0.594963 8.38715 0.85916 7.56581C1.12337 6.74444 1.83388 6.14644 2.68822 6.02629L2.68928 6.02614L7.02974 5.40568L8.98907 1.49712Z" fill="#F6B76F"/>
<path d="M10.9998 0.997559C10.4315 0.999427 9.91273 1.32231 9.66022 1.83182L7.52433 6.09259L2.79336 6.76887C2.2234 6.84876 1.74934 7.24758 1.57311 7.79546C1.39687 8.34334 1.54952 8.94375 1.96601 9.34094L5.37343 12.6063L4.5641 17.2452C4.46409 17.8084 4.69295 18.3795 5.15422 18.7177C5.61548 19.056 6.22893 19.1026 6.736 18.8379L10.9998 16.6355V0.997559Z" fill="#F6B76F"/>
</svg>
