<svg width="10" height="8" viewBox="0 0 10 8" fill="none" xmlns="http://www.w3.org/2000/svg">
<path d="M7.41577 4.96699C7.30785 5.07158 7.25827 5.22283 7.28285 5.37116L7.65326 7.42116C7.68451 7.59491 7.61118 7.77074 7.46577 7.87116C7.32327 7.97533 7.13369 7.98783 6.97827 7.90449L5.13287 6.94199C5.0687 6.90783 4.99745 6.88949 4.92454 6.88741H4.81162C4.77246 6.89324 4.73412 6.90574 4.69912 6.92491L2.85331 7.89199C2.76206 7.93783 2.65872 7.95408 2.55748 7.93783C2.31081 7.89116 2.14623 7.65616 2.18665 7.40824L2.55748 5.35824C2.58206 5.20866 2.53248 5.05658 2.42456 4.95033L0.919989 3.49199C0.794157 3.36991 0.750408 3.18658 0.807907 3.02116C0.86374 2.85616 1.00624 2.73574 1.17832 2.70866L3.24914 2.40824C3.40663 2.39199 3.54497 2.29616 3.6158 2.15449L4.52829 0.283659C4.54996 0.241992 4.57787 0.203659 4.61162 0.171159L4.64912 0.141992C4.66871 0.120326 4.69121 0.102409 4.71621 0.0878255L4.76162 0.0711589L4.83246 0.0419922H5.00787C5.16454 0.0582422 5.30245 0.151992 5.37453 0.291992L6.29911 2.15449C6.36578 2.29074 6.49536 2.38533 6.64494 2.40824L8.71576 2.70866C8.89075 2.73366 9.037 2.85449 9.09492 3.02116C9.1495 3.18824 9.10242 3.37158 8.97409 3.49199L7.41577 4.96699Z" fill="#F6B76F"/>
</svg>
