<svg width="49" height="48" viewBox="0 0 49 48" fill="none" xmlns="http://www.w3.org/2000/svg">
<path d="M24.4962 47.022C11.7832 47.022 1.47046 36.7167 1.47046 23.9962C1.47046 11.2832 11.7758 0.970459 24.4962 0.970459C37.2093 0.970459 47.522 11.2758 47.522 23.9962" stroke="#FF6F00" stroke-width="2.6322" stroke-miterlimit="10" stroke-linecap="square"/>
<path d="M24.4963 0.977783V4.5487" stroke="#FF6F00" stroke-width="2.6322" stroke-miterlimit="10" stroke-linecap="square"/>
<path d="M24.4963 43.4436V47.0219" stroke="#FF6F00" stroke-width="2.6322" stroke-miterlimit="10" stroke-linecap="square"/>
<path d="M8.21973 7.71973L10.746 10.246" stroke="#FF6F00" stroke-width="2.6322" stroke-miterlimit="10" stroke-linecap="square"/>
<path d="M1.47778 23.9963H5.0487" stroke="#FF6F00" stroke-width="2.6322" stroke-miterlimit="10" stroke-linecap="square"/>
<path d="M43.9436 23.9963H47.5219" stroke="#FF6F00" stroke-width="2.6322" stroke-miterlimit="10" stroke-linecap="square"/>
<path d="M8.21973 40.2803L10.746 37.7466" stroke="#FF6F00" stroke-width="2.6322" stroke-miterlimit="10" stroke-linecap="square"/>
<path d="M38.2466 10.246L40.7803 7.71973" stroke="#FF6F00" stroke-width="2.6322" stroke-miterlimit="10" stroke-linecap="square"/>
<path d="M34.4384 14.0613L26.6594 21.8403" stroke="#FF6F00" stroke-width="2.6322" stroke-miterlimit="10" stroke-linecap="square"/>
<path d="M22.444 21.7366L18.4656 17.8323" stroke="#FF6F00" stroke-width="2.6322" stroke-miterlimit="10" stroke-linecap="square"/>
<path d="M24.4963 27.056C26.1861 27.056 27.556 25.6861 27.556 23.9963C27.556 22.3064 26.1861 20.9365 24.4963 20.9365C22.8064 20.9365 21.4365 22.3064 21.4365 23.9963C21.4365 25.6861 22.8064 27.056 24.4963 27.056Z" stroke="#FF6F00" stroke-width="2.6322" stroke-miterlimit="10" stroke-linecap="square"/>
<path d="M29.5786 32.1752V30.2341H36.6019V32.8716L29.8527 41.2655V44.5549H36.6019" stroke="#FF6F00" stroke-width="2.6322" stroke-miterlimit="10" stroke-linecap="square"/>
<path d="M39.9431 30.2341V37.3982H45.0846" stroke="#FF6F00" stroke-width="2.6322" stroke-miterlimit="10" stroke-linecap="square"/>
<path d="M46.3071 30.2341V44.5549" stroke="#FF6F00" stroke-width="2.6322" stroke-miterlimit="10" stroke-linecap="square"/>
</svg>
