<svg width="24" height="24" viewBox="0 0 24 24" fill="none" xmlns="http://www.w3.org/2000/svg">
<path fill-rule="evenodd" clip-rule="evenodd" d="M4.84799 4.10164C5.10639 4.1182 5.33797 4.26689 5.46059 4.49495C6.34993 6.14911 7.89064 7.65665 9.55682 8.35037C9.75872 7.28236 10.2345 6.33388 10.9521 5.60054C11.8857 4.64656 13.1869 4.1001 14.7 4.1001C15.6994 4.1001 16.5426 4.29119 17.2551 4.67143C17.84 4.98356 18.3054 5.40643 18.686 5.9001H21C21.2766 5.9001 21.5307 6.05234 21.6613 6.29621C21.7918 6.54008 21.7775 6.83598 21.624 7.06613L19.9485 9.57949C19.9057 12.7725 18.9671 15.5776 17.1749 17.6088C15.3296 19.7002 12.6407 20.9001 9.30001 20.9001C7.35543 20.9001 5.9411 20.3881 4.83816 19.6077C3.75813 18.8435 3.01928 17.8481 2.39435 16.9925C2.24132 16.7829 2.20745 16.5092 2.3048 16.2687C2.39166 16.0541 2.57198 15.8932 2.79145 15.8297L2.80469 15.8254L2.88988 15.7976C2.96458 15.773 3.07043 15.7379 3.19749 15.6957C3.45141 15.6113 3.78755 15.4991 4.12315 15.3869C4.21412 15.3565 4.30503 15.3261 4.39421 15.2963C1.87614 12.0436 1.86531 7.66076 4.19019 4.4135C4.34092 4.20297 4.58959 4.08507 4.84799 4.10164ZM5.93826 16.3612L5.52031 16.5012C5.26938 16.5852 4.93446 16.6973 4.59861 16.8096C4.47412 16.8512 4.34945 16.8928 4.22886 16.9331C4.66397 17.4785 5.12895 17.9759 5.7046 18.3832C6.53741 18.9726 7.64459 19.4001 9.30001 19.4001C12.2593 19.4001 14.5204 18.35 16.0501 16.6164C17.5901 14.8711 18.45 12.3621 18.45 9.3501C18.45 9.20203 18.4938 9.05728 18.576 8.93408L19.5986 7.4001H18.3C18.0479 7.4001 17.8126 7.2734 17.6738 7.06287C17.3617 6.58946 17.0003 6.23567 16.5489 5.99477C16.0959 5.75301 15.5057 5.6001 14.7 5.6001C13.5621 5.6001 12.6564 6.00365 12.0242 6.64966C11.388 7.29978 10.9872 8.2389 10.9496 9.3749C10.9421 9.60051 10.8334 9.81077 10.6537 9.94732C10.4739 10.0839 10.2422 10.1322 10.0229 10.0789C7.94982 9.57506 6.06068 8.0461 4.80647 6.27797C3.35742 9.11866 3.78375 12.6463 6.23322 15.1227C6.41536 15.3068 6.4896 15.5719 6.42961 15.8238C6.36961 16.0758 6.18384 16.279 5.93826 16.3612Z" fill="#858585"/>
</svg>
