<svg width="20" height="18" viewBox="0 0 20 18" fill="none" xmlns="http://www.w3.org/2000/svg">
<g clip-path="url(#clip0_162_131)">
<path d="M0.0217285 1.20652C0.346125 0.898565 0.662653 0.583354 1.00097 0.290527C1.63645 0.86166 2.20293 1.50479 2.79362 2.1219C2.91285 2.24048 3.01937 2.39053 3.18157 2.45224C4.78963 2.73417 6.41645 2.91628 8.01725 3.24118C7.8369 3.87704 7.7558 4.55405 7.81027 5.2111C7.77153 5.22138 7.7334 5.23167 7.69467 5.24195C7.33335 4.94913 7.03861 4.5837 6.67367 4.2945C6.5496 4.41611 6.42553 4.53893 6.30449 4.66477C6.62767 5.15967 7.22744 5.44645 7.41688 6.02908C7.80906 7.08543 8.22605 8.13271 8.60794 9.19329C8.67754 9.39053 8.77014 9.58837 8.76893 9.80133C8.7538 9.93927 8.68178 10.0621 8.63094 10.1891C8.36101 10.2061 8.05719 10.2436 7.87018 10.4614C7.60086 10.7439 7.58573 11.2322 7.8605 11.5159C8.08625 11.7761 8.49537 11.856 8.79677 11.6823C9.00133 11.5764 9.11148 11.3647 9.22466 11.1753C9.98602 11.1771 10.7468 11.1735 11.5081 11.1747C11.6812 11.3925 11.8828 11.6442 12.183 11.6666C12.6786 11.7368 13.144 11.2159 13.0272 10.7318C12.9649 10.4372 12.7264 10.1553 12.4129 10.128C12.2398 10.1178 12.0516 10.1069 11.8967 10.1982C11.697 10.3041 11.5917 10.514 11.47 10.6937C10.6887 10.6792 9.90734 10.6974 9.12601 10.6895C9.1018 10.603 9.05278 10.5195 9.05641 10.4281C9.14961 10.194 9.30031 9.98768 9.42922 9.77229C10.768 9.75959 12.1073 9.77048 13.4467 9.76685C13.6427 9.76745 13.837 9.73902 14.0313 9.71602C14.4132 8.63789 14.7521 7.54463 15.1285 6.46408C15.3827 5.76831 15.5891 5.04774 15.594 4.30116C15.7065 4.29208 15.8191 4.2824 15.9323 4.27696C17.0156 4.42398 18.1014 4.5837 19.1847 4.74342C19.445 4.77307 19.7028 4.82268 19.9588 4.87834C19.514 6.03392 19.0467 7.18163 18.5807 8.32873C18.0064 9.79286 17.4078 11.2479 16.8232 12.7078C16.7741 12.804 16.7306 12.9607 16.5914 12.9292C13.443 12.9323 10.2953 12.9317 7.14755 12.9305C6.77716 13.4828 6.48484 14.083 6.13624 14.6487C6.23791 14.8217 6.3414 14.9942 6.44369 15.1666C8.40519 15.1545 10.3673 15.1805 12.3288 15.1654C12.4704 14.8955 12.6102 14.6142 12.8408 14.4067C13.2312 14.0552 13.7668 13.8531 14.294 13.9015C14.7103 13.9547 15.1243 14.1217 15.4239 14.4224C15.9286 14.8925 16.1514 15.6603 15.9311 16.3203C15.7077 17.1256 14.884 17.7191 14.0476 17.655C13.604 17.6695 13.1798 17.4668 12.8511 17.1801C12.6169 16.978 12.4723 16.6985 12.3349 16.4262C10.3812 16.4323 8.42698 16.4232 6.47274 16.425C6.25728 17.0639 5.70593 17.5806 5.03656 17.701C4.66556 17.7294 4.27277 17.7482 3.9278 17.5842C3.38916 17.3628 2.97519 16.8721 2.84204 16.3064C2.60479 15.4558 3.0926 14.4781 3.9048 14.1381C4.27459 13.9463 4.70248 13.9947 5.10313 14.0122C5.28651 13.7188 5.46505 13.4217 5.6333 13.1186C5.68353 13.0127 5.75495 12.8923 5.70169 12.7738C4.55359 9.70574 3.40671 6.63651 2.27011 3.56365C2.17933 3.32709 1.96448 3.17704 1.79562 2.99978C1.20674 2.3996 0.605158 1.81213 0.0217285 1.20652Z" stroke="#7A7F84" stroke-width="0.5" stroke-miterlimit="10"/>
<path d="M11.3605 0.69165C11.5281 0.69165 11.6958 0.69165 11.8628 0.69165C11.8858 0.69649 11.9082 0.703146 11.9312 0.704961C12.3597 0.737631 12.773 0.835038 13.167 1.00565C14.2177 1.46062 14.9639 2.2187 15.3682 3.28958C15.7828 4.38828 15.7217 5.47488 15.1951 6.5264C14.2607 8.39347 12.0111 9.23867 10.0889 8.42614C8.74291 7.85682 7.93313 6.83253 7.6517 5.39563C7.62386 5.25224 7.61055 5.10643 7.59058 4.96183C7.59058 4.79424 7.59058 4.62666 7.59058 4.45967C7.59542 4.43668 7.60208 4.4143 7.60389 4.3913C7.6396 3.93694 7.74309 3.4977 7.93616 3.08508C8.53532 1.80487 9.5303 1.02622 10.9187 0.753967C11.0651 0.725531 11.2134 0.712221 11.3605 0.69165ZM11.7811 2.7015C11.0197 2.7009 10.429 2.75111 9.84138 2.84429C9.76573 2.85639 9.74031 2.88966 9.7276 2.95984C9.64529 3.41844 9.59384 3.88067 9.5769 4.34653C9.55027 5.06529 9.60111 5.7786 9.73304 6.48586C9.74273 6.53971 9.7627 6.5627 9.81959 6.57238C10.2844 6.65042 10.7528 6.6964 11.2237 6.71395C11.953 6.74057 12.6774 6.69277 13.3976 6.5754C13.4545 6.56633 13.4751 6.54152 13.4824 6.48586C13.5181 6.20332 13.5671 5.92199 13.5937 5.63884C13.6791 4.741 13.6434 3.8474 13.4872 2.95803C13.4727 2.87635 13.4394 2.85397 13.3656 2.84187C12.7852 2.74809 12.2017 2.70211 11.7811 2.7015ZM13.6972 2.90539C13.9109 4.11481 13.9103 5.31274 13.6978 6.51611C14.1759 6.41931 14.6317 6.28863 15.0777 6.12225C15.1322 6.10168 15.1606 6.06961 15.18 6.01637C15.3059 5.66728 15.3834 5.30911 15.4057 4.93884C15.4378 4.40159 15.3579 3.88128 15.1667 3.37791C15.157 3.3525 15.1316 3.32406 15.1068 3.31438C14.6535 3.13651 14.1868 3.00522 13.6972 2.90539ZM9.80567 6.78776C9.80567 6.80773 9.80446 6.8162 9.80567 6.82346C9.91824 7.30807 10.0708 7.77938 10.2777 8.23193C10.2898 8.25794 10.3231 8.28093 10.3516 8.29122C11.1892 8.58344 12.0274 8.58586 12.865 8.29243C12.9014 8.27972 12.9425 8.24463 12.9558 8.21015C13.0757 7.8901 13.1937 7.56944 13.3038 7.24576C13.3528 7.10116 13.3813 6.9499 13.4224 6.78837C12.2102 6.98984 11.0107 6.99044 9.80567 6.78776ZM9.79478 2.62951C11.0107 2.43227 12.2114 2.43348 13.4176 2.62648C13.3056 2.12795 13.1574 1.65786 12.9534 1.20652C12.9389 1.17385 12.9014 1.14118 12.8669 1.12968C12.0292 0.836853 11.191 0.837459 10.3534 1.13028C10.3195 1.14239 10.2808 1.17627 10.2687 1.20894C10.147 1.53383 10.0272 1.85933 9.914 2.18785C9.86619 2.327 9.83654 2.4722 9.79478 2.62951ZM9.51698 2.90781C9.03099 3.00764 8.56921 3.13772 8.12075 3.31317C8.0917 3.32467 8.06265 3.35855 8.05175 3.38819C7.72857 4.2697 7.72857 5.15181 8.05236 6.0327C8.06446 6.06598 8.10138 6.10228 8.13527 6.11378C8.40217 6.20453 8.66968 6.29407 8.93961 6.37454C9.12601 6.42959 9.31666 6.46952 9.51819 6.51914C9.29547 5.3085 9.29487 4.1136 9.51698 2.90781ZM15.0117 6.40297C14.5718 6.5143 14.1318 6.62501 13.6924 6.73936C13.6706 6.74481 13.6458 6.77869 13.6403 6.80349C13.5435 7.24031 13.417 7.66806 13.2524 8.0843C13.2463 8.09943 13.2439 8.11576 13.2366 8.1442C14.0319 7.74973 14.6208 7.16892 15.0117 6.40297ZM8.19821 6.37817C8.6031 7.16831 9.19077 7.74973 9.98118 8.13997C9.97997 8.12 9.98118 8.11213 9.97816 8.10548C9.80749 7.67773 9.67555 7.23789 9.57145 6.78897C9.56661 6.76719 9.53514 6.74178 9.51154 6.73573C9.27368 6.67583 9.03281 6.62441 8.79617 6.56088C8.60068 6.50824 8.40822 6.4429 8.19821 6.37817ZM15.0226 3.0385C14.6147 2.24835 14.0283 1.66754 13.23 1.27549C13.2433 1.31179 13.2494 1.32933 13.256 1.34627C13.4158 1.75284 13.5405 2.17091 13.6331 2.59744C13.6452 2.65371 13.6694 2.67307 13.7214 2.68517C13.9756 2.74446 14.2304 2.80375 14.4822 2.87151C14.6577 2.9187 14.8302 2.9786 15.0226 3.0385ZM8.20064 3.04031C8.22969 3.03305 8.24482 3.03124 8.25874 3.02579C8.66726 2.87817 9.08486 2.76503 9.51093 2.68456C9.5654 2.67428 9.57145 2.63979 9.58295 2.59926C9.68342 2.25137 9.78388 1.90289 9.88798 1.55561C9.91461 1.46728 9.95213 1.38197 9.99208 1.27488C9.19259 1.67238 8.60431 2.25137 8.20064 3.04031Z" fill="#7A7F84"/>
<path d="M9.80574 6.78772C11.0113 6.9904 12.2103 6.98979 13.4225 6.78772C13.3814 6.94926 13.3529 7.10051 13.3039 7.24511C13.1943 7.56879 13.0757 7.88945 12.9559 8.2095C12.9432 8.24399 12.9014 8.27968 12.8651 8.29178C12.0275 8.58461 11.1893 8.58219 10.3516 8.29057C10.3232 8.28089 10.2893 8.2573 10.2778 8.23128C10.0708 7.77813 9.91831 7.30743 9.80574 6.82281C9.80392 6.81616 9.80574 6.80829 9.80574 6.78772Z" fill="white"/>
<path d="M15.0118 6.40295C14.6214 7.1683 14.0319 7.74971 13.2361 8.14418C13.2433 8.11575 13.2458 8.09941 13.2518 8.08429C13.4164 7.66804 13.5429 7.24029 13.6398 6.80347C13.6452 6.77867 13.67 6.74539 13.6918 6.73934C14.1312 6.62499 14.5718 6.51428 15.0118 6.40295Z" fill="white"/>
<path d="M8.19824 6.37817C8.40765 6.44291 8.60011 6.50825 8.7962 6.56089C9.03344 6.62441 9.27371 6.67584 9.51156 6.73574C9.53517 6.74179 9.56664 6.7672 9.57148 6.78898C9.67558 7.2379 9.80751 7.67714 9.97818 8.10549C9.98061 8.11214 9.9794 8.12001 9.98121 8.13997C9.1908 7.74974 8.60374 7.16772 8.19824 6.37817Z" fill="white"/>
<path d="M6.30444 4.66482C6.42549 4.53898 6.54956 4.41616 6.67363 4.29456C7.03857 4.58375 7.33331 4.94918 7.69463 5.24201C8.07894 5.30493 8.46628 5.35091 8.85362 5.39507C8.89356 5.39931 8.97466 5.40778 9.01521 5.41201C9.14654 5.42593 9.27727 5.4465 9.408 5.46526C9.5472 5.48885 9.68519 5.51729 9.82499 5.53967C9.91698 5.5548 10.0096 5.56871 10.1022 5.58202C10.6681 5.65704 11.2327 5.74054 11.7986 5.81435C11.9572 5.83915 12.1169 5.85912 12.2761 5.88574C12.3869 5.9051 12.497 5.92991 12.6072 5.9529C13.075 6.01763 13.5453 6.06845 14.0137 6.13259C14.1934 6.15195 14.372 6.18038 14.5505 6.20882C14.7509 6.23846 14.9681 6.2675 15.1685 6.29412C15.1636 6.3274 15.1461 6.38488 15.1352 6.42904C15.1285 6.45748 15.1206 6.48531 15.111 6.51253C14.7412 7.57736 14.4071 8.65367 14.0306 9.71547C13.8364 9.73846 13.6421 9.7669 13.446 9.76629C12.1067 9.76992 10.7673 9.75903 9.42857 9.77174C9.29966 9.98712 9.14896 10.1934 9.05576 10.4276C9.05213 10.5189 9.10115 10.6024 9.12536 10.6889C9.9067 10.6968 10.688 10.6787 11.4694 10.6932C11.591 10.5135 11.6963 10.3035 11.896 10.1977C12.051 10.1063 12.2392 10.1172 12.4123 10.1275C12.7258 10.1547 12.9643 10.4366 13.0266 10.7313C13.1434 11.2153 12.678 11.7362 12.1823 11.666C11.8821 11.6436 11.6806 11.392 11.5075 11.1742C10.7461 11.1729 9.98537 11.1766 9.22401 11.1748C9.11084 11.3641 9.00069 11.5759 8.79612 11.6818C8.49472 11.8554 8.0856 11.7755 7.85985 11.5154C7.58508 11.2316 7.60021 10.7434 7.86953 10.4608C8.05655 10.243 8.36037 10.2055 8.63029 10.1886C8.68113 10.0615 8.75315 9.93872 8.76828 9.80078C8.76949 9.58781 8.67689 9.38997 8.60729 9.19274C8.2254 8.13215 7.80841 7.08488 7.41623 6.02852C7.2274 5.4465 6.62763 5.15972 6.30444 4.66482Z" fill="#7A7F84"/>
</g>
<defs>
<clipPath id="clip0_162_131">
<rect width="20" height="17.5" fill="white" transform="translate(0 0.25)"/>
</clipPath>
</defs>
</svg>
