<svg width="20" height="20" viewBox="0 0 20 20" fill="none" xmlns="http://www.w3.org/2000/svg">
<path d="M6.71977 7.50999C6.71929 8.35852 7.04866 9.17401 7.63831 9.78419C8.22796 10.3944 9.03171 10.7514 9.87977 10.78C9.95945 10.77 10.0401 10.77 10.1198 10.78L6.71977 7.50999ZM6.71977 7.50999C6.71977 5.69999 8.17977 4.22999 9.99977 4.22999L6.71977 7.50999ZM10.134 10.3791C10.0446 10.3703 9.95462 10.3703 9.86526 10.3791C9.13126 10.3473 8.43699 10.0351 7.92595 9.50622C7.40843 8.97069 7.11934 8.25495 7.11977 7.51021V7.50999C7.11977 5.9201 8.40147 4.62999 9.99977 4.62999L10.0005 4.62998C10.755 4.62868 11.4798 4.92391 12.0186 5.45205C12.5574 5.98019 12.8671 6.69892 12.881 7.4533C12.8948 8.20768 12.6116 8.93727 12.0925 9.48479C11.5798 10.0255 10.8776 10.3458 10.134 10.3791ZM10.0005 19.6H9.99977C7.57948 19.6 5.37682 18.7069 3.6871 17.2258C3.82946 16.4946 4.33573 15.7494 5.25206 15.1325C6.54272 14.2756 8.26579 13.835 10.0073 13.835C11.7491 13.835 13.4667 14.2757 14.7468 15.1321C15.6637 15.7492 16.1702 16.4947 16.3125 17.2262C14.5698 18.7584 12.3258 19.6041 10.0005 19.6Z" stroke="#343434" stroke-width="0.8" stroke-linecap="round" stroke-linejoin="round"/>
<path d="M19.6 10C19.6 15.3021 15.3021 19.6 10 19.6C4.69791 19.6 0.4 15.3021 0.4 10C0.4 4.69791 4.69791 0.4 10 0.4C15.3021 0.4 19.6 4.69791 19.6 10Z" stroke="#343434" stroke-width="0.8" stroke-linecap="round" stroke-linejoin="round"/>
</svg>
