<svg width="121" height="45" viewBox="0 0 121 45" fill="none" xmlns="http://www.w3.org/2000/svg">
<g clip-path="url(#clip0_4_163)">
<path fill-rule="evenodd" clip-rule="evenodd" d="M16.6418 13.6954L28.691 2.17205C29.9256 1.05173 31.8462 0.297229 33.1494 0H25.5358C26.5189 0.297229 26.2674 1.14318 25.4215 2.17205L9.18821 17.6965V2.17205C9.48544 1.18891 10.4 0.297229 11.3831 0H0.5C1.46028 0.297229 2.39769 1.18891 2.67205 2.17205V32.6723C2.39769 33.6554 1.46028 34.5471 0.5 34.8443H11.3831C10.4 34.5471 9.48544 33.6554 9.18821 32.6723V20.8288L12.2291 17.9252L22.8607 32.6723C23.5009 33.7469 23.2494 34.5471 22.2663 34.8443H33.1494C32.1663 34.5471 30.2914 33.6097 29.4912 32.6723L29.5369 32.7408L16.6418 13.6954ZM44.1863 34.1584C44.2549 34.5471 44.5979 34.8443 45.0094 34.8443H52.8746C51.8914 34.5242 50.9769 33.6554 50.7025 32.6494V20.6917H50.7254C50.7254 15.273 46.1755 10.8831 40.1395 10.8831C36.2755 10.8831 32.5487 12.6208 31.3827 16.9649L34.675 19.7314C34.9723 15.3187 37.2129 11.9806 40.1395 11.9806C42.9288 11.9806 44.1635 15.9589 44.1635 20.6917V21.3547C42.9746 20.9203 41.6485 20.6917 40.2538 20.6917C35.2009 20.6917 31.1083 22.8637 31.1083 27.7566C31.1083 32.6494 35.2009 34.8443 40.2538 34.8443C41.6713 34.8443 42.9974 34.5928 44.1863 34.1584ZM42.5859 21.7891C43.1346 21.7891 43.6605 21.8806 44.1635 22.1092V33.4268C43.6605 33.6325 43.1346 33.7469 42.5859 33.7469C39.8651 33.7469 37.6702 32.0321 37.6702 27.7566C37.6702 23.6639 39.8651 21.7891 42.5859 21.7891ZM63.5128 34.8443C62.5297 34.5471 61.5923 33.6554 61.3179 32.6723V0H61.295L54.8017 1.87483L53.7043 2.17205C54.5731 2.92656 54.8017 5.44157 54.8017 6.53902V32.6723C54.5045 33.6554 53.59 34.5471 52.6068 34.8443H63.5128ZM74.1371 34.8443C73.154 34.5471 72.2395 33.6554 71.9651 32.6723V10.8831H71.9422L65.4261 12.758L64.3286 13.0552C65.1974 13.8326 65.4261 16.3476 65.4261 17.4222V32.6723C65.1517 33.6554 64.2372 34.5471 63.254 34.8443H74.1371ZM64.8773 5.44157C64.8773 7.2478 66.3406 8.71108 68.1469 8.71108C69.9531 8.71108 71.4164 7.2478 71.4164 5.44157C71.4164 3.63533 69.9531 2.17205 68.1469 2.17205C66.3406 2.17205 64.8773 3.63533 64.8773 5.44157ZM79.4805 33.1524C77.3999 33.1524 78.4516 31.2547 80.7151 29.0827C82.2241 29.9972 83.9618 30.5002 85.768 30.5002C86.614 30.5002 87.4599 30.3859 88.3059 30.1572C93.5188 28.7626 96.6283 23.3896 95.2336 18.1538C94.5705 15.7074 93.0158 13.7182 91.0267 12.4379C92.2384 10.3573 93.816 9.64849 95.508 8.93971L93.3588 6.53902C91.644 7.91085 90.5008 9.62562 89.9063 11.8205C88.626 11.2261 87.2084 10.906 85.7452 10.906C84.9221 10.906 84.0761 10.9974 83.2301 11.2261C77.9943 12.6436 74.9078 18.0166 76.3024 23.2295C76.874 25.333 78.0858 27.0935 79.6634 28.351C76.5768 31.0489 74.5877 33.6554 75.9595 36.2619C76.6454 37.5422 77.9486 38.0452 79.5034 38.0452C80.6008 38.0452 81.8126 37.7937 83.0244 37.3593C85.3565 36.5134 87.8029 35.5074 89.4948 35.5074C90.5694 35.5074 91.3239 35.9189 91.5297 37.0392C92.1013 41.1776 90.5465 43.624 88.0544 44.287C87.7343 44.3785 87.3456 44.4242 86.9341 44.4242C83.6188 44.4242 77.6057 41.9092 76.3253 38.2053L73.856 41.7263C75.5251 44.6071 80.5551 45.7503 84.602 45.7503C86.0424 45.7503 87.3456 45.6131 88.3288 45.3388C93.313 43.9898 97.7029 42.2522 97.7029 37.0392C97.7029 33.4725 94.1133 30.5231 89.7234 30.5231C88.4431 30.5231 87.0941 30.7746 85.768 31.3233C82.59 32.6265 80.6008 33.1524 79.4805 33.1524ZM84.0532 12.0263C86.3167 12.0263 88.9004 15.1815 90.0664 19.5485C91.3468 24.3041 90.4551 28.6711 88.0773 29.3113C87.8943 29.357 87.6886 29.3799 87.5057 29.3799C85.2421 29.3799 82.6357 26.2018 81.4696 21.8577C80.1893 17.1021 81.081 12.7351 83.4588 12.0949C83.6646 12.0492 83.8475 12.0263 84.0532 12.0263ZM96.95 25.9732C98.3904 31.3233 103.215 34.8443 108.496 34.8443C109.525 34.8443 110.577 34.7071 111.606 34.4328C118.007 32.718 121.803 26.1561 120.088 19.7543C118.648 14.4041 113.823 10.8831 108.519 10.8831C107.49 10.8831 106.461 11.0203 105.41 11.2947C99.0306 13.0095 95.2352 19.5713 96.95 25.9732ZM110.6 33.4725C107.856 33.4725 104.678 29.6085 103.26 24.2813C101.706 18.4739 102.803 13.1238 105.707 12.3464C105.935 12.2778 106.187 12.255 106.438 12.255C109.182 12.255 112.36 16.1189 113.778 21.4462C115.332 27.2536 114.235 32.6037 111.331 33.381C111.103 33.4496 110.851 33.4725 110.6 33.4725Z" fill="#4D4D4D"/>
</g>
<defs>
<clipPath id="clip0_4_163">
<rect width="120" height="45" fill="white" transform="translate(0.5)"/>
</clipPath>
</defs>
</svg>
