<svg width="143" height="49" viewBox="0 0 143 49" fill="none" xmlns="http://www.w3.org/2000/svg">
<g clip-path="url(#clip0_4_175)">
<path fill-rule="evenodd" clip-rule="evenodd" d="M25.6326 32.1462C25.6326 32.2402 25.5861 32.3185 25.4932 32.3812C25.4313 32.4125 25.3229 32.5065 25.168 32.6632C25.0132 32.7885 24.8738 32.8825 24.7499 32.9452C24.688 33.0078 24.5641 33.0862 24.3783 33.1802C24.0686 33.4308 23.7279 33.6815 23.3562 33.9321C23.1704 34.0261 22.9846 34.1358 22.7988 34.2611C20.8786 35.389 19.2836 35.953 18.0138 35.953C16.806 35.953 15.7375 35.6397 14.8084 35.0131C13.8793 34.3551 13.2289 33.5091 12.8572 32.4752V32.5222C12.1449 33.1175 11.5874 33.5718 11.1848 33.8851C10.7822 34.1984 10.2557 34.5431 9.60533 34.9191C8.98592 35.295 8.35102 35.5614 7.70064 35.718C7.05026 35.8747 6.33794 35.953 5.56368 35.953C4.20098 35.953 3.00861 35.4987 1.98658 34.5901C0.995528 33.6501 0.5 32.5222 0.5 31.2063C0.5 30.517 0.716794 29.859 1.15038 29.2324C1.58397 28.6057 2.09498 28.0731 2.68342 27.6345C3.30283 27.1645 4.09258 26.6788 5.05266 26.1775C6.04372 25.6762 6.89541 25.2846 7.60773 25.0026C8.35102 24.6893 9.24917 24.329 10.3022 23.9217C11.3552 23.5144 12.0985 23.2167 12.532 23.0287V17.906C12.532 17.0914 12.4082 16.3708 12.1604 15.7441C11.9126 15.1175 11.541 14.6319 11.0455 14.2872C10.5809 13.9112 10.0389 13.7232 9.41951 13.7232C8.98592 13.7232 8.53685 13.7702 8.07229 13.8642C7.6387 13.9582 7.20511 14.1462 6.77153 14.4282C6.33794 14.7102 6.01275 15.0548 5.79596 15.4621C5.61013 15.8695 5.57916 16.4334 5.70304 17.154C5.82693 17.8433 6.18309 18.6423 6.77153 19.5509L5.7495 20.3969C5.09912 20.9295 4.40228 21.1488 3.65899 21.0548C2.94667 20.9608 2.37372 20.6632 1.94013 20.1619C1.50654 19.6292 1.22781 19.0183 1.10392 18.329C1.01101 17.6397 1.28975 16.9661 1.94013 16.3081C1.94013 16.3081 1.95561 16.2924 1.98658 16.2611C3.84481 14.4125 6.276 13.4256 9.28014 13.3003C9.31111 13.3003 9.34208 13.3003 9.37305 13.3003C9.43499 13.2689 9.46596 13.2533 9.46596 13.2533C9.55887 13.2533 9.69824 13.2533 9.88406 13.2533H9.97697C12.3307 13.2846 14.3593 13.9739 16.0627 15.3211C17.797 16.6684 18.6642 18.329 18.6642 20.3029L18.85 26.4125V29.3734C18.85 30.6266 19.1288 31.5979 19.6862 32.2872C20.2437 32.9765 21.0334 33.3211 22.0555 33.3211C22.8917 33.3211 23.6659 33.0705 24.3783 32.5692C24.5331 32.5065 24.7034 32.3812 24.8893 32.1932L25.2145 31.9582C25.2764 31.9269 25.3229 31.9112 25.3538 31.9112C25.5397 31.9112 25.6326 31.9896 25.6326 32.1462ZM11.3242 33.1332C11.7578 32.8512 12.2069 32.4595 12.6714 31.9582C12.5785 31.5822 12.532 31.2219 12.532 30.8773V23.4987C11.1074 24.0313 10.0079 24.5953 9.23368 25.1906C8.45942 25.7546 7.90195 26.4125 7.56128 27.1645C7.25157 27.9164 7.09672 28.8564 7.09672 29.9843C7.09672 30.9243 7.329 31.7546 7.79355 32.4752C8.28908 33.1645 8.95495 33.5091 9.79115 33.5091C10.4106 33.5091 10.9216 33.3838 11.3242 33.1332ZM33.6037 13.8642V29.7023C33.6657 30.8616 33.9599 31.7546 34.4864 32.3812C35.0129 33.0078 35.7252 33.3211 36.6233 33.3211C37.3047 33.3211 37.8776 33.2115 38.3422 32.9922C38.8068 32.7728 39.3178 32.4282 39.8752 31.9582C39.9062 31.8956 39.9527 31.8642 40.0146 31.8642C40.1695 31.8642 40.2469 31.9582 40.2469 32.1462C40.2469 32.2402 40.2159 32.3029 40.154 32.3342V32.3812C37.026 34.7937 34.5019 36 32.5817 36C31.0641 36 29.7789 35.4987 28.7259 34.4961C27.7038 33.4935 27.1619 32.3029 27.0999 30.9243V13.8642H21.9433V13.2533H27.0999V10.8564C26.976 8.75718 25.923 7.70757 23.9409 7.70757V7.33159C24.5294 7.26893 25.1488 7.15927 25.7992 7.00261C26.4805 6.84595 27.1154 6.68929 27.7038 6.53264C28.2923 6.34465 28.8652 6.15666 29.4227 5.96867C30.0111 5.74935 30.5222 5.54569 30.9557 5.3577C31.4203 5.16971 31.8229 5.01306 32.1636 4.88773C32.5352 4.73107 32.814 4.60574 32.9998 4.51175L33.2785 4.37076H33.6037V13.2533H40.665V13.8642H33.6037ZM58.8379 14.0992C59.3025 14.6632 59.5502 15.2898 59.5812 15.9791C59.6122 16.6371 59.3954 17.2637 58.9308 17.859C58.4972 18.4543 57.8778 18.7833 57.0726 18.846L55.7254 18.9869C55.6015 18.0157 55.2763 17.2637 54.7498 16.7311C54.2543 16.1671 53.5884 15.8851 52.7522 15.8851C52.2257 15.8851 51.7147 15.9948 51.2192 16.2141C50.7236 16.4334 50.352 16.6527 50.1042 16.8721C49.8565 17.0601 49.4384 17.4047 48.8499 17.906C48.8499 17.906 48.8499 17.8903 48.8499 17.859V29.6084C48.9119 30.3603 49.0512 31.0183 49.268 31.5822C49.5158 32.1149 49.8565 32.5379 50.29 32.8512C50.7546 33.1332 51.2811 33.2742 51.8695 33.2742C52.5509 33.2742 53.1238 33.1645 53.5884 32.9452C54.053 32.6945 54.564 32.3342 55.1214 31.8642C55.1524 31.8329 55.1989 31.8172 55.2608 31.8172C55.4466 31.8172 55.5395 31.8956 55.5395 32.0522C55.5395 32.1462 55.4931 32.2245 55.4002 32.2872C52.2722 34.6997 49.7635 35.906 47.8743 35.906C46.8523 35.906 45.9232 35.671 45.087 35.201C44.2508 34.7311 43.5849 34.1044 43.0894 33.3211C42.6248 32.5379 42.3771 31.7076 42.3461 30.8303V19.7389C42.2222 17.6397 41.1692 16.5901 39.1871 16.5901V16.2141C40.4879 16.0574 41.9125 15.7441 43.461 15.2741C45.0096 14.7728 46.2484 14.3185 47.1775 13.9112L48.5712 13.2533H48.8499V17.201C52.1638 14.5692 54.8117 13.2533 56.7938 13.2533C56.8248 13.2533 56.8558 13.2533 56.8868 13.2533C57.723 13.2533 58.3733 13.5352 58.8379 14.0992ZM62.4567 6.86162C61.6825 6.07833 61.2953 5.13838 61.2953 4.04178C61.2953 2.91384 61.6825 1.95823 62.4567 1.17494C63.231 0.391645 64.1601 0 65.2441 0C66.359 0 67.3036 0.391645 68.0779 1.17494C68.8521 1.95823 69.2393 2.89817 69.2393 3.99478C69.2393 4.74674 69.0534 5.43603 68.6818 6.06266C68.3411 6.65796 67.8611 7.1436 67.2417 7.51958C66.6532 7.86423 65.9874 8.03655 65.2441 8.03655C64.1601 8.03655 63.231 7.64491 62.4567 6.86162ZM74.9998 32.2402C71.8718 34.6841 69.3632 35.906 67.474 35.906C66.4519 35.906 65.5228 35.671 64.6866 35.201C63.8504 34.7311 63.1845 34.1044 62.689 33.3211C62.2245 32.5379 61.9767 31.7076 61.9457 30.8303V19.7389C61.8218 17.6397 60.7688 16.5901 58.7867 16.5901V16.2141C60.0875 16.0574 61.5121 15.7441 63.0607 15.2741C64.6092 14.7728 65.848 14.3029 66.7771 13.8642L68.1708 13.2533H68.4495V29.6084C68.5115 30.7676 68.8057 31.6606 69.3322 32.2872C69.8587 32.9138 70.571 33.2271 71.4691 33.2271C72.1505 33.2271 72.7234 33.1175 73.188 32.8982C73.6526 32.6788 74.1636 32.3342 74.721 31.8642C74.752 31.8016 74.7985 31.7702 74.8604 31.7702C75.0462 31.7702 75.1392 31.8642 75.1392 32.0522C75.1392 32.1462 75.0927 32.2089 74.9998 32.2402ZM99.9465 32.5692V32.8982C98.6767 33.0548 97.2521 33.3838 95.6726 33.8851C94.1241 34.3864 92.8852 34.8407 91.9561 35.248L90.6089 35.906H90.2837V32.0052C87.0009 34.5744 84.3684 35.859 82.3862 35.859C80.8687 35.859 79.5834 35.3734 78.5304 34.4021C77.5084 33.3995 76.9664 32.1932 76.9045 30.7833V22.9817V20.0209C76.9045 18.7363 76.6412 17.7337 76.1147 17.0131C75.6192 16.2611 74.8759 15.8851 73.8848 15.8851C73.0486 15.8851 72.2589 16.1201 71.5156 16.5901C71.3917 16.6841 71.2214 16.8094 71.0046 16.9661L70.7259 17.248C70.6639 17.2794 70.602 17.295 70.54 17.295C70.3852 17.295 70.3078 17.2167 70.3078 17.0601C70.3078 16.9347 70.3387 16.8564 70.4007 16.8251C70.4936 16.7624 70.6175 16.6684 70.7723 16.5431C70.9272 16.4178 71.051 16.3238 71.144 16.2611C71.2369 16.1984 71.3607 16.1044 71.5156 15.9791C71.8563 15.7598 72.2124 15.5248 72.5841 15.2741C72.7389 15.1802 72.9248 15.0705 73.1416 14.9452C75.0308 13.8172 76.6257 13.2533 77.9265 13.2533C79.4441 13.2533 80.7138 13.7546 81.7359 14.7572C82.7889 15.7285 83.3463 16.9191 83.4083 18.329V26.1305V29.0914C83.4083 29.9373 83.5167 30.6736 83.7335 31.3003C83.9503 31.9269 84.2909 32.4125 84.7555 32.7572C85.22 33.0705 85.7775 33.2271 86.4279 33.2271C86.9544 33.2271 87.4499 33.1332 87.9145 32.9452C88.41 32.7258 88.7971 32.5222 89.0759 32.3342C89.3546 32.1149 89.7572 31.7702 90.2837 31.3003V19.5509C90.2218 18.3916 89.9276 17.4987 89.4011 16.8721C88.8746 16.2141 88.1623 15.8851 87.2641 15.8851C86.5828 15.8851 86.0098 16.0104 85.5452 16.2611C85.1117 16.4804 84.6006 16.8251 84.0122 17.295C83.9812 17.3264 83.9348 17.342 83.8728 17.342C83.718 17.342 83.6406 17.2637 83.6406 17.107C83.6406 17.0131 83.6715 16.9347 83.7335 16.8721C86.8615 14.4595 89.3856 13.2533 91.3058 13.2533C92.8233 13.2533 94.0931 13.7546 95.1151 14.7572C96.1681 15.7598 96.7256 16.9504 96.7875 18.329V29.4204C96.9114 31.5196 97.9644 32.5692 99.9465 32.5692ZM142.5 32.0992C142.5 32.1932 142.469 32.2715 142.407 32.3342C142.345 32.3655 142.268 32.4282 142.175 32.5222C142.082 32.5849 141.989 32.6475 141.896 32.7102C141.803 32.7728 141.71 32.8355 141.617 32.8982C141.555 32.9608 141.447 33.0392 141.292 33.1332C140.951 33.3838 140.595 33.6345 140.224 33.8851C140.069 33.9791 139.883 34.0888 139.666 34.2141C137.777 35.342 136.197 35.906 134.928 35.906C133.379 35.906 132.078 35.4047 131.025 34.4021C130.003 33.3995 129.461 32.2089 129.399 30.8303V23.0287V20.0209C129.399 18.7363 129.136 17.7337 128.61 17.0131C128.114 16.2924 127.371 15.9321 126.38 15.9321C125.853 15.9321 125.342 16.0418 124.847 16.2611C124.351 16.4491 123.964 16.6527 123.685 16.8721C123.438 17.0601 123.035 17.4047 122.478 17.906C122.509 18.0627 122.524 18.2037 122.524 18.329V26.1775V29.1384C122.524 30.423 122.787 31.4413 123.314 32.1932C123.84 32.9138 124.584 33.2742 125.544 33.2742C126.411 33.2742 127.201 33.0235 127.913 32.5222C128.068 32.4595 128.238 32.3342 128.424 32.1462L128.749 31.9112C128.78 31.8799 128.827 31.8642 128.888 31.8642C129.043 31.8642 129.121 31.9426 129.121 32.0992C129.121 32.1932 129.09 32.2715 129.028 32.3342C128.966 32.3655 128.888 32.4282 128.796 32.5222C128.703 32.5849 128.61 32.6475 128.517 32.7102C128.424 32.7728 128.331 32.8355 128.238 32.8982C128.176 32.9608 128.068 33.0392 127.913 33.1332C127.572 33.3838 127.216 33.6345 126.844 33.8851C126.69 33.9791 126.519 34.0888 126.333 34.2141C124.413 35.342 122.818 35.906 121.548 35.906C120 35.906 118.699 35.4047 117.646 34.4021C116.624 33.3995 116.098 32.2089 116.067 30.8303V23.0287V20.0209C116.067 18.7363 115.803 17.7337 115.277 17.0131C114.75 16.2924 113.992 15.9321 113.001 15.9321C112.474 15.9321 111.963 16.0418 111.468 16.2611C110.972 16.4491 110.6 16.6527 110.353 16.8721C110.105 17.0601 109.687 17.4047 109.098 17.906C109.098 17.906 109.098 17.8903 109.098 17.859V29.6084C109.16 30.3916 109.3 31.0496 109.516 31.5822C109.764 32.1149 110.105 32.5379 110.538 32.8512C111.003 33.1332 111.529 33.2742 112.118 33.2742C112.799 33.2742 113.372 33.1645 113.837 32.9452C114.301 32.6945 114.812 32.3342 115.37 31.8642C115.401 31.8329 115.447 31.8172 115.509 31.8172C115.695 31.8172 115.788 31.8956 115.788 32.0522C115.788 32.1462 115.741 32.2245 115.649 32.2872C112.521 34.6997 110.012 35.906 108.123 35.906C107.101 35.906 106.172 35.671 105.335 35.201C104.499 34.7311 103.833 34.1201 103.338 33.3681C102.873 32.5849 102.625 31.7389 102.594 30.8303V19.7389C102.471 17.671 101.418 16.6371 99.4355 16.6371V16.2611C100.736 16.1044 102.161 15.7755 103.709 15.2741C105.258 14.7728 106.497 14.3185 107.426 13.9112L108.82 13.3003H109.098V17.201C112.412 14.5692 115.06 13.2533 117.042 13.2533C118.374 13.2533 119.52 13.6449 120.48 14.4282C121.44 15.1802 122.075 16.1358 122.385 17.295C125.729 14.6005 128.408 13.2533 130.421 13.2533C131.939 13.2533 133.209 13.7546 134.231 14.7572C135.284 15.7598 135.841 16.9504 135.903 18.329V26.1775V29.1384C135.903 30.423 136.167 31.4413 136.693 32.1932C137.22 32.9138 137.963 33.2742 138.923 33.2742C139.759 33.2742 140.549 33.0235 141.292 32.5222C141.416 32.4595 141.586 32.3342 141.803 32.1462L142.128 31.9112C142.159 31.8799 142.206 31.8642 142.268 31.8642C142.423 31.8642 142.5 31.9426 142.5 32.0992Z" fill="#4D4D4D"/>
<path fill-rule="evenodd" clip-rule="evenodd" d="M2.81381 42.9183H0.5V42.12H6.06656V42.9183H3.74317V48.8846H2.81381V42.9183ZM15.2196 42.12H20.2975V42.9183H16.149V44.9901H20.0341V45.7838H16.149V48.0864H20.4604V48.8846H15.2196V42.12ZM35.8603 46.739C35.6655 47.4742 35.3142 48.0356 34.8064 48.4232C34.3018 48.8077 33.6838 49 32.9524 49C32.1955 49 31.5792 48.8523 31.1033 48.557C30.6306 48.2586 30.2698 47.8279 30.0207 47.265C29.7747 46.702 29.6518 46.0976 29.6518 45.4515C29.6518 44.7471 29.7907 44.1334 30.0686 43.6104C30.3496 43.0844 30.7472 42.686 31.2614 42.4153C31.7788 42.1415 32.3472 42.0046 32.9668 42.0046C33.6694 42.0046 34.2603 42.1769 34.7393 42.5214C35.2183 42.866 35.5521 43.3505 35.7405 43.975L34.8255 44.1826C34.6627 43.6904 34.4263 43.332 34.1165 43.1074C33.8068 42.8829 33.4171 42.7706 32.9477 42.7706C32.4079 42.7706 31.956 42.8952 31.5919 43.1444C31.2311 43.3935 30.9772 43.7289 30.8303 44.1503C30.6833 44.5687 30.6099 45.0009 30.6099 45.4469C30.6099 46.0222 30.6961 46.5252 30.8686 46.9558C31.0442 47.3834 31.3157 47.7034 31.683 47.9156C32.0502 48.1279 32.4478 48.234 32.8758 48.234C33.3964 48.234 33.8371 48.0894 34.198 47.8003C34.5589 47.5111 34.8032 47.082 34.9309 46.5129L35.8603 46.739ZM45.2145 42.12H46.1439V44.8978H49.7942V42.12H50.7236V48.8846H49.7942V45.6961H46.1439V48.8846H45.2145V42.12ZM60.4419 42.12H61.3952L65.0839 47.4311V42.12H65.975V48.8846H65.0216L61.333 43.5689V48.8846H60.4419V42.12ZM76.3735 42.9552C76.9995 42.3184 77.8075 42 78.7975 42C79.4458 42 80.0303 42.1492 80.5508 42.4476C81.0714 42.746 81.4674 43.1628 81.7389 43.6981C82.0135 44.2303 82.1509 44.8348 82.1509 45.5115C82.1509 46.1975 82.0072 46.8113 81.7197 47.3527C81.4323 47.8941 81.0251 48.3048 80.4982 48.5847C79.9712 48.8616 79.4027 49 78.7927 49C78.1317 49 77.5408 48.8462 77.0203 48.5386C76.4997 48.2309 76.1053 47.811 75.837 47.2788C75.5687 46.7466 75.4346 46.1837 75.4346 45.59C75.4346 44.4671 75.7476 43.5889 76.3735 42.9552ZM77.0729 47.5326C77.5296 48.0002 78.1013 48.234 78.7879 48.234C79.4874 48.234 80.0622 47.9971 80.5125 47.5234C80.966 47.0497 81.1928 46.3775 81.1928 45.5069C81.1928 44.9563 81.0954 44.4764 80.9006 44.0672C80.7089 43.655 80.4263 43.3366 80.0526 43.1121C79.6822 42.8844 79.2654 42.7706 78.8023 42.7706C78.1444 42.7706 77.5775 42.989 77.1017 43.4258C76.629 43.8596 76.3927 44.5856 76.3927 45.6038C76.3927 46.419 76.6194 47.062 77.0729 47.5326ZM91.4908 42.12H92.4201V48.0864H95.8789V48.8846H91.4908V42.12ZM105.822 42.9552C106.448 42.3184 107.256 42 108.246 42C108.895 42 109.479 42.1492 110 42.4476C110.52 42.746 110.916 43.1628 111.188 43.6981C111.462 44.2303 111.6 44.8348 111.6 45.5115C111.6 46.1975 111.456 46.8113 111.169 47.3527C110.881 47.8941 110.474 48.3048 109.947 48.5847C109.42 48.8616 108.852 49 108.242 49C107.58 49 106.99 48.8462 106.469 48.5386C105.948 48.2309 105.554 47.811 105.286 47.2788C105.018 46.7466 104.883 46.1837 104.883 45.59C104.883 44.4671 105.196 43.5889 105.822 42.9552ZM106.522 47.5326C106.978 48.0002 107.55 48.234 108.237 48.234C108.936 48.234 109.511 47.9971 109.961 47.5234C110.415 47.0497 110.642 46.3775 110.642 45.5069C110.642 44.9563 110.544 44.4764 110.349 44.0672C110.158 43.655 109.875 43.3366 109.501 43.1121C109.131 42.8844 108.714 42.7706 108.251 42.7706C107.593 42.7706 107.026 42.989 106.55 43.4258C106.078 43.8596 105.841 44.5856 105.841 45.6038C105.841 46.419 106.068 47.062 106.522 47.5326ZM124.264 45.4377L127.239 45.4331V47.9433C126.782 48.294 126.311 48.5586 125.826 48.737C125.34 48.9123 124.842 49 124.331 49C123.641 49 123.014 48.8585 122.449 48.5755C121.886 48.2894 121.462 47.8772 121.174 47.3388C120.887 46.8005 120.743 46.1991 120.743 45.5346C120.743 44.8763 120.885 44.2626 121.17 43.6935C121.457 43.1213 121.869 42.6968 122.405 42.4199C122.942 42.143 123.56 42.0046 124.259 42.0046C124.767 42.0046 125.225 42.0846 125.634 42.2446C126.046 42.4015 126.369 42.6214 126.602 42.9044C126.835 43.1874 127.012 43.5566 127.134 44.0119L126.295 44.2334C126.19 43.8888 126.059 43.6181 125.903 43.4212C125.746 43.2243 125.522 43.0675 125.232 42.9506C124.941 42.8306 124.619 42.7706 124.264 42.7706C123.839 42.7706 123.472 42.8337 123.162 42.9598C122.853 43.0828 122.602 43.2459 122.41 43.4489C122.222 43.6519 122.075 43.875 121.97 44.118C121.791 44.5364 121.701 44.9901 121.701 45.4792C121.701 46.0822 121.808 46.5867 122.022 46.9927C122.239 47.3988 122.554 47.7003 122.966 47.8972C123.378 48.094 123.815 48.1925 124.279 48.1925C124.681 48.1925 125.074 48.1187 125.457 47.971C125.84 47.8203 126.131 47.6603 126.329 47.4911V46.2314H124.264V45.4377ZM138.768 46.0191L136.062 42.12H137.192L138.577 44.1595C138.832 44.541 139.07 44.9224 139.29 45.3039C139.501 44.9501 139.757 44.5517 140.057 44.1088L141.417 42.12H142.5L139.698 46.0191V48.8846H138.768V46.0191Z" fill="#4D4D4D"/>
</g>
<defs>
<clipPath id="clip0_4_175">
<rect width="142" height="49" fill="white" transform="translate(0.5)"/>
</clipPath>
</defs>
</svg>
