<svg width="153" height="49" viewBox="0 0 153 49" fill="none" xmlns="http://www.w3.org/2000/svg">
<g clip-path="url(#clip0_4_113)">
<path fill-rule="evenodd" clip-rule="evenodd" d="M23.6416 31.5L22.1511 26.4806C21.1313 28.1671 19.9677 29.4253 18.6603 30.2552C17.379 31.0851 15.8624 31.5 14.1104 31.5C10.1881 31.5 6.93258 30.0678 4.34386 27.2034C1.78129 24.3122 0.5 20.6179 0.5 16.1205C0.5 11.6498 1.87281 7.8886 4.61842 4.83679C7.23329 1.9456 10.2796 0.5 13.7574 0.5C15.1956 0.5 16.5291 0.781089 17.7581 1.34327C18.6472 1.74482 19.7324 2.45423 21.0136 3.4715L22.6218 0.5H23.9554L24.6614 12.386H23.4455C22.4257 8.90587 21.1575 6.32254 19.6408 4.63601C18.1242 2.92271 16.2677 2.06606 14.0712 2.06606C10.9072 2.06606 8.54072 3.61874 6.9718 6.72409C6.44883 7.76814 6.0566 9.06649 5.79511 10.6192C5.55977 12.1451 5.4421 13.9788 5.4421 16.1205C5.4421 25.4365 8.27923 30.0946 13.9535 30.0946C16.0715 30.0946 17.7712 29.4253 19.0525 28.0868C20.3599 26.7215 21.0136 24.968 21.0136 22.8264V20.0959C21.0136 19.1589 20.3076 18.6904 18.8956 18.6904H16.4245V17.285H28.6229V18.6904H26.9755C25.5897 18.6904 24.8967 19.1991 24.8967 20.2163V31.5H23.6416ZM29.5928 12.0246L36.1823 11.7034V19.2927C36.9145 16.7496 37.7774 14.8489 38.771 13.5907C39.7647 12.3325 40.9937 11.7034 42.458 11.7034C43.4516 11.7034 44.2361 12.0246 44.8114 12.6671C45.4128 13.2828 45.7135 14.1395 45.7135 15.237C45.7135 15.9866 45.5174 16.6023 45.1252 17.0842C44.7329 17.5661 44.223 17.807 43.5955 17.807C43.0202 17.807 42.5495 17.6062 42.1834 17.2047C41.8435 16.7763 41.6735 16.2275 41.6735 15.5583C41.6735 15.1835 41.765 14.7953 41.9481 14.3938C42.1311 13.9922 42.2227 13.7513 42.2227 13.671C42.2227 13.6174 42.1704 13.5639 42.0658 13.5104C42.0396 13.5104 41.9742 13.497 41.8696 13.4702C40.7453 13.4702 39.5947 14.5946 38.418 16.8433C37.2675 19.0652 36.6922 21.421 36.6922 23.9106V27.9262C36.6922 28.8631 37.3852 29.3316 38.771 29.3316H41.1244V30.8575H29.7105V29.3316H31.5148C32.7961 29.3316 33.4367 28.9033 33.4367 28.0466V16.0803C33.4367 14.3402 32.6915 13.4702 31.201 13.4702H29.5928V12.0246ZM52.2806 16.0803C52.5159 16.4819 52.6336 16.8433 52.6336 17.1645C52.6336 18.503 51.9537 19.1723 50.594 19.1723C49.9141 19.1723 49.3519 18.9715 48.9074 18.5699C48.489 18.1416 48.2798 17.5393 48.2798 16.763C48.2798 15.3709 49.0381 14.1529 50.5548 13.1088C52.0714 12.038 53.9672 11.5026 56.2421 11.5026C58.3078 11.5026 59.9291 11.9711 61.1057 12.908C62.3086 13.8182 62.91 15.0095 62.91 16.4819V26.8018C62.91 28.5419 63.433 29.4119 64.4789 29.4119C64.7666 29.4119 65.0281 29.3718 65.2634 29.2915C65.5249 29.1844 65.7994 29.0237 66.0871 28.8096L66.8323 29.8938C65.891 30.9111 64.845 31.4197 63.6945 31.4197C61.8902 31.4197 60.5959 30.2953 59.8114 28.0466C58.6608 29.2781 57.6672 30.1213 56.8304 30.5764C55.8106 31.1386 54.5686 31.4197 53.1042 31.4197C51.3 31.4197 49.888 31.0181 48.8682 30.215C47.8745 29.4119 47.3777 28.3411 47.3777 27.0026C47.3777 25.1019 48.4498 23.4957 50.594 22.1839C52.7643 20.8454 55.7845 19.9486 59.6545 19.4935V16.6826C59.6545 15.5851 59.2492 14.6883 58.4386 13.9922C57.6541 13.2962 56.6605 12.9482 55.4576 12.9482C54.4378 12.9482 53.5357 13.1623 52.7512 13.5907C51.9929 13.9922 51.6138 14.3804 51.6138 14.7552C51.6138 14.8623 51.836 15.304 52.2806 16.0803ZM59.6545 20.8588C56.6212 21.2871 54.4117 21.943 53.0258 22.8264C51.6661 23.6831 50.9862 24.9413 50.9862 26.601C50.9862 27.6183 51.2477 28.4214 51.7707 29.0104C52.3198 29.5725 53.052 29.8536 53.9672 29.8536C55.4838 29.8536 56.8043 29.2647 57.9287 28.0868C59.0792 26.8821 59.6545 25.3696 59.6545 23.5492V20.8588ZM68.265 12.0246L74.3838 11.7034C74.5669 12.56 74.6976 13.323 74.776 13.9922C74.8806 14.6347 74.9329 15.237 74.9329 15.7992C76.5542 13.0687 78.7899 11.7034 81.6401 11.7034C83.4705 11.7034 84.8956 12.2923 85.9154 13.4702C86.9352 14.6481 87.4451 16.2677 87.4451 18.329V27.4845C87.4451 28.1537 87.5758 28.6356 87.8373 28.9301C88.1249 29.1978 88.6348 29.3316 89.367 29.3316H90.7006V30.8575H80.9733V29.3316H81.8754C83.4182 29.3316 84.1896 28.7694 84.1896 27.6451V19.614C84.1896 15.8126 82.8168 13.9119 80.0712 13.9119C78.633 13.9119 77.4171 14.5142 76.4234 15.7189C75.4298 16.9236 74.9329 18.5164 74.9329 20.4974V27.4845C74.9329 28.1805 75.0768 28.6623 75.3644 28.9301C75.652 29.1978 76.175 29.3316 76.9333 29.3316H78.1884V30.8575H68.4611V29.3316H69.7163C71.0237 29.3316 71.6774 28.8631 71.6774 27.9262V15.7992C71.6774 14.1662 70.8668 13.3497 69.2456 13.3497H68.265V12.0246ZM105.629 27.0427C104.086 29.8001 102.098 31.1788 99.6667 31.1788C97.5225 31.1788 95.7313 30.2686 94.2931 28.4482C92.8549 26.601 92.1358 24.2319 92.1358 21.3407C92.1358 18.4763 92.9072 16.1339 94.45 14.3135C95.9928 12.4663 97.8493 11.5427 100.02 11.5427C102.399 11.5427 104.269 12.734 105.629 15.1166V4.51555C105.629 3.28411 104.74 2.66839 102.961 2.66839H101.706V1.18264L108.884 0.781088V26.5207C108.884 28.3946 109.616 29.3316 111.081 29.3316H112.375V30.8575H106.099L105.629 27.0427ZM95.9012 20.7785C95.9012 26.4806 97.4309 29.3316 100.49 29.3316C102.007 29.3316 103.236 28.582 104.177 27.0829C105.145 25.5838 105.629 23.4957 105.629 20.8187C105.629 18.5164 105.145 16.6559 104.177 15.237C103.21 13.8182 101.994 13.1088 100.53 13.1088C97.444 13.1088 95.9012 15.6654 95.9012 20.7785ZM130.556 25.7176C128.647 29.519 125.889 31.4197 122.28 31.4197C119.796 31.4197 117.717 30.5229 116.044 28.7293C114.396 26.9089 113.573 24.5665 113.573 21.7021C113.573 18.677 114.383 16.2142 116.005 14.3135C117.626 12.4128 119.678 11.4624 122.163 11.4624C124.673 11.4624 126.673 12.3726 128.164 14.193C129.68 15.9866 130.439 18.4763 130.439 21.6619H117.26C117.26 22.706 117.325 23.6295 117.456 24.4326C117.587 25.2358 117.809 25.9318 118.123 26.5207C119.195 28.582 120.855 29.6127 123.104 29.6127C125.667 29.6127 127.719 28.1269 129.262 25.1554L130.556 25.7176ZM125.222 20.136C126.216 20.136 126.712 19.4668 126.712 18.1282C126.712 16.6291 126.268 15.3575 125.379 14.3135C124.516 13.2427 123.457 12.7073 122.202 12.7073C120.737 12.7073 119.548 13.3631 118.633 14.6749C117.717 15.9866 117.26 17.807 117.26 20.136H125.222ZM145.754 27.0427C144.211 29.8001 142.224 31.1788 139.792 31.1788C137.648 31.1788 135.856 30.2686 134.418 28.4482C132.98 26.601 132.261 24.2319 132.261 21.3407C132.261 18.4763 133.032 16.1339 134.575 14.3135C136.118 12.4663 137.974 11.5427 140.145 11.5427C142.524 11.5427 144.394 12.734 145.754 15.1166V4.51555C145.754 3.28411 144.865 2.66839 143.086 2.66839H141.831V1.18264L149.009 0.781088V26.5207C149.009 28.3946 149.741 29.3316 151.206 29.3316H152.5V30.8575H146.224L145.754 27.0427ZM136.026 20.7785C136.026 26.4806 137.556 29.3316 140.615 29.3316C142.132 29.3316 143.361 28.582 144.302 27.0829C145.27 25.5838 145.754 23.4957 145.754 20.8187C145.754 18.5164 145.27 16.6559 144.302 15.237C143.335 13.8182 142.119 13.1088 140.655 13.1088C137.569 13.1088 136.026 15.6654 136.026 20.7785Z" fill="#4D4D4D"/>
<path fill-rule="evenodd" clip-rule="evenodd" d="M33.6768 40.5C32.8096 40.5 32.0615 40.8794 31.4336 41.6384C30.8115 42.3904 30.5 43.3357 30.5 44.4741C30.5 45.6401 30.8115 46.6025 31.4336 47.3616C32.0557 48.1206 32.8193 48.5 33.7236 48.5C33.876 48.5 34.0254 48.4893 34.1699 48.4678C34.4766 48.4226 34.7646 48.3296 35.0361 48.1885C35.1455 48.1316 35.252 48.0669 35.3555 47.9944L35.4727 47.908L35.5713 47.8284C35.7295 47.6958 35.8809 47.5437 36.0244 47.3718C36.6523 46.6199 36.9668 45.6643 36.9668 44.5051C36.9668 43.3391 36.6523 42.3801 36.0244 41.6282C35.3955 40.876 34.6133 40.5 33.6768 40.5ZM33.752 40.9036C35.1035 40.9036 35.7793 42.1179 35.7793 44.5466C35.7793 45.7126 35.5996 46.5957 35.2422 47.196C34.8896 47.7961 34.3838 48.0964 33.7236 48.0964C32.3662 48.0964 31.6875 46.8855 31.6875 44.4639C31.6875 43.9878 31.7158 43.553 31.7725 43.1597C31.8291 42.7666 31.9141 42.4421 32.0273 42.187C32.2031 41.7729 32.4385 41.4556 32.7344 41.2349C33.0361 41.0139 33.375 40.9036 33.752 40.9036ZM44.2939 44.5776H44.8594C44.9482 44.5776 45.0322 44.5818 45.1123 44.5901C45.1553 44.5945 45.1973 44.6001 45.2383 44.6069C45.332 44.6228 45.4199 44.6448 45.501 44.6729C45.5889 44.7031 45.6699 44.7407 45.7441 44.7856L45.7891 44.8145L45.8398 44.8508C45.8818 44.8828 45.9209 44.9175 45.958 44.9551C46.0166 45.0151 46.0684 45.0825 46.1133 45.1572C46.2266 45.3477 46.3076 45.6101 46.3574 45.9446C46.3955 46.2043 46.415 46.5076 46.415 46.8545C46.415 47.3513 46.5156 47.7341 46.7168 48.0032C46.9238 48.2722 47.1973 48.4067 47.5371 48.4067C48.3291 48.4067 48.7246 47.8169 48.7246 46.6372H48.4043C48.4043 46.9683 48.3633 47.2305 48.2812 47.4236C48.2061 47.6169 48.1084 47.7134 47.9893 47.7134C47.7695 47.7134 47.5117 47.0581 47.2168 45.7471C47.2041 45.6887 47.1885 45.6323 47.1699 45.5781L47.1475 45.5164L47.1289 45.4653C47.0986 45.3909 47.0635 45.3206 47.0244 45.2544C46.9941 45.2041 46.9619 45.156 46.9268 45.1104L46.8945 45.0693C46.8252 44.9868 46.7471 44.9126 46.6602 44.8467C46.4717 44.7019 46.1602 44.5637 45.7266 44.4326C46.1982 44.3774 46.5439 44.312 46.7637 44.2361C46.9463 44.1748 47.1104 44.092 47.2568 43.9875C47.3076 43.9517 47.3564 43.9133 47.4023 43.8723C47.4336 43.845 47.4629 43.8164 47.4922 43.7869L47.5371 43.7393C47.8262 43.4219 47.9707 43.0286 47.9707 42.5596C47.9707 41.98 47.7754 41.5212 47.3857 41.1831C46.9961 40.845 46.4561 40.676 45.7646 40.676H42.1631V41.0691H42.8516C42.9346 41.0691 43.0039 41.0762 43.0615 41.0903C43.1172 41.1042 43.1602 41.1248 43.1914 41.1521C43.2598 41.2073 43.2949 41.3071 43.2949 41.4521V47.5686C43.2949 47.8101 43.1475 47.9309 42.8516 47.9309H42.1631V48.324H45.4062V47.9309H44.6611C44.417 47.9309 44.2939 47.8101 44.2939 47.5686V44.5776ZM44.2939 41.4419C44.2939 41.2808 44.3584 41.1719 44.4873 41.1152C44.5244 41.0991 44.5664 41.0872 44.6143 41.0796C44.6582 41.0728 44.8223 41.0691 45.1045 41.0691C45.7334 41.0691 46.1641 41.145 46.3965 41.2969C46.7227 41.5107 46.8867 41.9524 46.8867 42.6216C46.8867 43.1736 46.7451 43.5737 46.4619 43.822C46.1855 44.0637 45.7393 44.1843 45.124 44.1843H44.2939V41.4419ZM53.874 40.676H57.0889V41.0691H56.542C56.29 41.0691 56.1328 41.1038 56.0703 41.1726C56.0137 41.2349 55.9854 41.3728 55.9854 41.5867V47.3823C55.9854 47.4531 55.9883 47.5151 55.9932 47.5684C55.999 47.6394 56.0088 47.6946 56.0234 47.7341C56.0732 47.8652 56.2246 47.9309 56.4756 47.9309H57.0889V48.324H53.874V47.9309H54.4863C54.7002 47.9309 54.8389 47.8962 54.9014 47.8274C54.9277 47.7983 54.9482 47.7551 54.9639 47.698C54.9854 47.6194 54.9961 47.5142 54.9961 47.3823V41.5867C54.9961 41.3728 54.9678 41.2383 54.9111 41.1831C54.8359 41.1072 54.6719 41.0691 54.4209 41.0691H53.874V40.676ZM68.0986 48.4897V45.5815C68.0986 45.3193 68.2646 45.1882 68.5977 45.1882H68.9941V44.8259H66.0615V45.1882H66.6562C66.9951 45.1882 67.165 45.3091 67.165 45.5505V46.2542C67.165 46.4126 67.1523 46.5627 67.126 46.7048C67.0898 46.9038 67.0273 47.0867 66.9404 47.2532C66.873 47.3816 66.791 47.5005 66.6934 47.6099C66.3857 47.9548 65.9775 48.1274 65.4678 48.1274C64.1045 48.1274 63.4229 46.927 63.4229 44.5259C63.4229 43.9739 63.4502 43.5012 63.5068 43.1079C63.5703 42.7078 63.6641 42.3733 63.79 42.1042C64.167 41.3037 64.7363 40.9036 65.4961 40.9036C65.5889 40.9036 65.6787 40.9104 65.7666 40.9241L65.8135 40.9321C65.8643 40.9414 65.9141 40.9529 65.9619 40.9668C66.041 40.9895 66.1182 41.0183 66.1934 41.0532L66.2812 41.0974L66.3389 41.1304C66.3779 41.1536 66.416 41.1787 66.4541 41.2056C66.5898 41.3025 66.7168 41.4226 66.835 41.5659C67.1992 42.0007 67.5039 42.6665 67.749 43.5635H68.042L67.8721 40.5H67.5518L67.165 41.2659C66.8574 41.0037 66.5957 40.8208 66.3828 40.7173C66.0869 40.5725 65.7666 40.5 65.4209 40.5C64.585 40.5 63.8525 40.8726 63.2246 41.6177C62.5645 42.4043 62.2344 43.3735 62.2344 44.5259C62.2344 45.6851 62.543 46.6372 63.1582 47.3823C63.7803 48.1206 64.5635 48.4897 65.5059 48.4897C65.9268 48.4897 66.291 48.3828 66.5996 48.1687C66.749 48.0669 66.8906 47.9402 67.0244 47.7883C67.1719 47.6211 67.3096 47.4238 67.4385 47.196L67.7969 48.4897H68.0986ZM74.1152 40.676H77.3301V41.0691H76.7832C76.5312 41.0691 76.374 41.1038 76.3115 41.1726C76.2549 41.2349 76.2266 41.3728 76.2266 41.5867V47.3823C76.2266 47.4607 76.2295 47.5281 76.2354 47.5847C76.2412 47.6479 76.251 47.6978 76.2646 47.7341C76.3145 47.8652 76.4658 47.9309 76.7168 47.9309H77.3301V48.324H74.1152V47.9309H74.7275C74.8447 47.9309 74.9395 47.9204 75.0107 47.8997C75.0703 47.8826 75.1143 47.8584 75.1426 47.8274C75.2051 47.7583 75.2363 47.6099 75.2363 47.3823V41.5867C75.2363 41.3728 75.208 41.2383 75.1523 41.1831C75.0762 41.1072 74.9131 41.0691 74.6621 41.0691H74.1152V40.676ZM82.4941 41.0691H82.8154C82.9326 41.0691 83.0352 41.0869 83.123 41.1221C83.1494 41.1328 83.1758 41.1453 83.2002 41.1592L83.2305 41.1785L83.2773 41.2141L83.5781 41.5557V46.7407C83.5781 47.0925 83.4775 47.3789 83.2773 47.5996C83.2451 47.635 83.2119 47.6677 83.1768 47.6975C83.1582 47.7134 83.1387 47.7283 83.1182 47.7424L83.0645 47.7788C83.0322 47.7991 82.998 47.8174 82.9629 47.8337C82.8945 47.8655 82.8223 47.8894 82.7461 47.9055C82.667 47.9224 82.583 47.9309 82.4941 47.9309V48.324H85.1533V47.9309C84.3672 47.9309 83.9746 47.5134 83.9746 46.6785V42.073L88.3301 48.324H88.7725V42.2388C88.7725 41.873 88.8545 41.5867 89.0176 41.3796C89.1816 41.1726 89.4072 41.0691 89.6973 41.0691H89.791V40.676H87.3398V41.0588C88.0254 41.0588 88.3672 41.4832 88.3672 42.3318V46.6785L84.1729 40.676H82.4941V41.0691ZM98.373 40.5103H98.6836L101.191 47.5063C101.285 47.7893 101.49 47.9309 101.804 47.9309H102.021V48.324H99.2402V47.9309H99.4658C99.9561 47.9309 100.201 47.8237 100.201 47.6099L100.199 47.5645C100.194 47.5176 100.183 47.4707 100.164 47.4236L99.5889 45.7886H96.8262L96.5059 46.7302C96.4746 46.8203 96.4521 46.8921 96.4365 46.9453C96.4229 46.99 96.415 47.0217 96.4121 47.0408L96.4014 47.0876L96.3984 47.106L96.3887 47.1594C96.3789 47.2234 96.374 47.2874 96.374 47.3513C96.374 47.5029 96.4492 47.6375 96.6006 47.7549C96.7578 47.8721 96.9648 47.9309 97.2227 47.9309H97.458V48.324H94.9316V47.9309H95.0068C95.4404 47.9309 95.7705 47.6204 95.9971 46.9993L98.373 40.5103ZM98.2314 41.9902L96.9863 45.3953H99.4473L98.2314 41.9902ZM107.189 41.0691H107.981C108.076 41.0691 108.149 41.0952 108.201 41.1477C108.262 41.2095 108.292 41.3076 108.292 41.4419V47.4236C108.292 47.4675 108.29 47.5083 108.286 47.5461C108.281 47.5911 108.273 47.6318 108.263 47.6682C108.25 47.7097 108.233 47.7456 108.213 47.7761C108.2 47.7954 108.186 47.8125 108.17 47.8274C108.088 47.8962 107.953 47.9309 107.765 47.9309H107.189V48.324H113.006L113.157 45.3745H112.827C112.683 46.2646 112.453 46.9131 112.139 47.3201C112.067 47.4128 111.989 47.4949 111.904 47.5667C111.83 47.6289 111.752 47.6831 111.668 47.7295C111.427 47.8638 111.144 47.9309 110.819 47.9309H109.848C109.471 47.9309 109.282 47.8237 109.282 47.6099V41.4314C109.282 41.3364 109.302 41.26 109.34 41.2024C109.398 41.1135 109.501 41.0691 109.649 41.0691H110.423V40.676H107.189V41.0691ZM118.814 45.447C118.94 46.2473 119.229 46.8889 119.682 47.3718C120.135 47.855 120.659 48.0964 121.256 48.0964C121.715 48.0964 122.092 47.948 122.388 47.6514C122.683 47.3479 122.831 46.9822 122.831 46.5544C122.831 46.2163 122.724 45.9333 122.51 45.7058C122.457 45.6482 122.399 45.5947 122.337 45.5454C122.144 45.3938 121.899 45.2817 121.605 45.209C120.819 45.0156 120.264 44.8535 119.937 44.7224C119.452 44.5293 119.113 44.3018 118.918 44.0396C118.855 43.9553 118.802 43.8625 118.757 43.761C118.715 43.6675 118.681 43.5664 118.653 43.458C118.604 43.2593 118.579 43.0356 118.579 42.7871C118.579 42.1318 118.773 41.5867 119.163 41.1521C119.553 40.7173 120.047 40.5 120.644 40.5C120.74 40.5 120.834 40.5054 120.925 40.5164C120.988 40.5239 121.05 40.5342 121.11 40.5471C121.256 40.5781 121.393 40.6245 121.521 40.6863C121.599 40.7231 121.677 40.7654 121.755 40.8132L121.819 40.8538L121.931 40.929C122.016 40.99 122.101 41.0576 122.187 41.1318C122.229 41.168 122.271 41.2058 122.312 41.2451L122.746 40.5725H123.085L123.113 43.3772H122.803C122.432 41.728 121.709 40.9036 120.634 40.9036C120.213 40.9036 119.867 41.0415 119.597 41.3176C119.499 41.4175 119.419 41.5254 119.357 41.6416C119.253 41.8381 119.201 42.0579 119.201 42.3008C119.201 42.4216 119.213 42.5344 119.236 42.6394C119.256 42.7295 119.284 42.8137 119.32 42.8923C119.381 43.021 119.464 43.1343 119.569 43.2322C119.758 43.4116 120.238 43.5979 121.011 43.791C121.791 43.9844 122.344 44.1912 122.67 44.4121C123.224 44.7847 123.5 45.3367 123.5 46.0679C123.5 46.7578 123.289 47.3306 122.868 47.7859C122.447 48.2412 121.897 48.469 121.219 48.469C120.926 48.469 120.647 48.4255 120.384 48.3389C120.236 48.2905 120.094 48.2285 119.955 48.1528C119.906 48.1265 119.858 48.0984 119.812 48.0686C119.714 48.0076 119.619 47.9395 119.526 47.8643C119.464 47.8137 119.403 47.76 119.343 47.7031L118.814 48.4172H118.476V45.447H118.814ZM26.5 45.5V46.5H0.5V45.5H26.5ZM128.5 45.5V46.5H152.5V45.5H128.5Z" fill="#4D4D4D"/>
</g>
<defs>
<clipPath id="clip0_4_113">
<rect width="152" height="48" fill="white" transform="translate(0.5 0.5)"/>
</clipPath>
</defs>
</svg>
