<svg width="108" height="49" viewBox="0 0 108 49" fill="none" xmlns="http://www.w3.org/2000/svg">
<g clip-path="url(#clip0_4_141)">
<path fill-rule="evenodd" clip-rule="evenodd" d="M6.73281 2.20872L11.4225 15.2492H11.5133L16.2031 2.20872H22.4359V23.3882H18.321V8.19948H18.1697L12.8446 23.3882H10.1215L4.76615 8.19948H4.61487V23.3882H0.5V2.20872H6.73281ZM26.6245 22.4805C25.4748 21.6938 24.6175 20.6752 24.0527 19.4246C23.5081 18.1538 23.2358 16.7923 23.2358 15.34C23.2358 13.8877 23.5081 12.5362 24.0527 11.2856C24.6175 10.0149 25.4748 8.98614 26.6245 8.19948C27.7743 7.41281 29.1963 7.01948 30.8907 7.01948C33.1296 7.01948 34.9047 7.73555 36.2158 9.16768C37.5471 10.5998 38.2127 12.6673 38.2127 15.3702V16.52H27.2599V16.762C27.2599 17.7302 27.5927 18.5673 28.2584 19.2733C28.924 19.9591 29.7611 20.302 30.7696 20.302C31.5563 20.302 32.2219 20.1205 32.7666 19.7574C33.3112 19.3943 33.7045 18.9001 33.9466 18.2749H38.0614C37.6378 19.8482 36.8108 21.1391 35.5804 22.1477C34.35 23.136 32.7766 23.6302 30.8604 23.6302C29.1862 23.6302 27.7743 23.247 26.6245 22.4805ZM33.2204 10.9831C32.6153 10.3779 31.8185 10.0754 30.8302 10.0754C29.7813 10.0754 28.9543 10.4082 28.3491 11.0738C27.744 11.7395 27.4213 12.6472 27.3809 13.7969H34.1886C34.1483 12.5261 33.8255 11.5882 33.2204 10.9831ZM43.2275 7.41281V9.86358H43.4393C43.8024 9.07691 44.3873 8.41127 45.1942 7.86666C46.001 7.30187 46.9793 7.01948 48.129 7.01948C50.2066 7.01948 51.669 7.68512 52.5162 9.0164C53.3836 10.3477 53.8172 11.8605 53.8172 13.5549V23.3882H49.6419V14.2508C49.6419 13.0808 49.3595 12.1631 48.7947 11.4974C48.2501 10.8318 47.4735 10.499 46.4649 10.499C45.3959 10.499 44.589 10.852 44.0444 11.5579C43.4998 12.2437 43.2275 13.1414 43.2275 14.2508V23.3882H38.9916V7.41281H43.2275ZM65.3194 23.3882V20.8466H65.1076C64.7445 21.6333 64.1697 22.309 63.383 22.8738C62.6165 23.4184 61.6685 23.6907 60.5389 23.6907C58.5016 23.6907 57.0695 23.0251 56.2425 21.6938C55.4155 20.3424 55.002 18.8296 55.002 17.1554V7.41281H59.1774V16.4595C59.1774 17.6092 59.4396 18.527 59.964 19.2128C60.4885 19.8784 61.2348 20.2113 62.203 20.2113C63.2519 20.2113 64.0285 19.8583 64.5327 19.1523C65.0572 18.4463 65.3194 17.5487 65.3194 16.4595V7.41281H69.525V23.3882H65.3194ZM75.3764 7.41281V23.3882H71.201V7.41281H75.3764ZM71.5943 3.99384C71.1506 3.52991 70.9287 2.97521 70.9287 2.32974C70.9287 1.6641 71.1506 1.1094 71.5943 0.665641C72.0381 0.221881 72.5928 0 73.2584 0C73.9241 0 74.4788 0.231967 74.9225 0.695898C75.3663 1.13966 75.5882 1.68427 75.5882 2.32974C75.5882 2.97521 75.3663 3.52991 74.9225 3.99384C74.4788 4.4376 73.9241 4.65948 73.2584 4.65948C72.5928 4.65948 72.0381 4.4376 71.5943 3.99384ZM81.5967 7.41281V9.86358H81.8085C82.1716 9.07691 82.7565 8.41127 83.5634 7.86666C84.3702 7.30187 85.3485 7.01948 86.4982 7.01948C88.5758 7.01948 90.0382 7.68512 90.8854 9.0164C91.7528 10.3477 92.1864 11.8605 92.1864 13.5549V23.3882H88.0111V14.2508C88.0111 13.0808 87.7287 12.1631 87.1639 11.4974C86.6193 10.8318 85.8427 10.499 84.8341 10.499C83.7651 10.499 82.9582 10.852 82.4136 11.5579C81.869 12.2437 81.5967 13.1414 81.5967 14.2508V23.3882H77.3608V7.41281H81.5967ZM96.3349 22.4805C95.1852 21.6938 94.3279 20.6752 93.7631 19.4246C93.2185 18.1538 92.9462 16.7923 92.9462 15.34C92.9462 13.8877 93.2185 12.5362 93.7631 11.2856C94.3279 10.0149 95.1852 8.98614 96.3349 8.19948C97.4846 7.41281 98.9067 7.01948 100.601 7.01948C102.84 7.01948 104.615 7.73555 105.926 9.16768C107.257 10.5998 107.923 12.6673 107.923 15.3702V16.52H96.9703V16.762C96.9703 17.7302 97.3031 18.5673 97.9687 19.2733C98.6344 19.9591 99.4715 20.302 100.48 20.302C101.267 20.302 101.932 20.1205 102.477 19.7574C103.022 19.3943 103.415 18.9001 103.657 18.2749H107.772C107.348 19.8482 106.521 21.1391 105.291 22.1477C104.06 23.136 102.487 23.6302 100.571 23.6302C98.8966 23.6302 97.4846 23.247 96.3349 22.4805ZM102.931 10.9831C102.326 10.3779 101.529 10.0754 100.541 10.0754C99.4916 10.0754 98.6646 10.4082 98.0595 11.0738C97.4544 11.7395 97.1316 12.6472 97.0913 13.7969H103.899C103.859 12.5261 103.536 11.5882 102.931 10.9831Z" fill="#4D4D4D"/>
<path fill-rule="evenodd" clip-rule="evenodd" d="M19.5304 39.3216L18.1315 43.536H14.6343L20.9293 26.3845H24.1767L30.4467 43.536H26.9495L25.5256 39.3216H19.5304ZM22.578 30.5989H22.4281L20.4047 36.6999H24.6513L22.578 30.5989ZM34.8916 48.8529C34.5752 48.7876 34.2588 48.6977 33.9424 48.5834V45.8636C34.1089 45.9126 34.3754 45.9617 34.7418 46.0107C35.1248 46.076 35.4912 46.1087 35.8409 46.1087C37.0066 46.1087 37.8227 45.782 38.2889 45.1286C38.7719 44.4915 39.0134 43.6911 39.0134 42.7274V41.0122H38.8135C38.5471 41.6003 38.0808 42.1475 37.4146 42.6539C36.7485 43.1603 35.8659 43.4134 34.7667 43.4134C33.7009 43.4134 32.7767 43.1439 31.9939 42.6049C31.2112 42.0495 30.6117 41.2818 30.1954 40.3017C29.779 39.3053 29.5709 38.1618 29.5709 36.8714C29.5709 35.5483 29.779 34.3967 30.1954 33.4166C30.6117 32.4202 31.2112 31.6525 31.9939 31.1134C32.7933 30.558 33.7259 30.2803 34.7917 30.2803C35.9075 30.2803 36.7985 30.5499 37.4646 31.0889C38.1307 31.6116 38.5804 32.167 38.8135 32.7551H39.0134V30.5989H42.4856V42.7274C42.4856 43.5605 42.3274 44.4425 42.011 45.3736C41.7112 46.321 41.1034 47.1541 40.1874 47.8728C39.2715 48.6079 37.9725 48.9754 36.2905 48.9754C35.6744 48.9754 35.2081 48.9346 34.8916 48.8529ZM38.264 39.5176C38.7636 38.7499 39.0134 37.8515 39.0134 36.8224C39.0134 35.8096 38.7636 34.9276 38.264 34.1762C37.781 33.4084 37.0483 33.0246 36.0657 33.0246C35.0832 33.0246 34.3421 33.4084 33.8425 34.1762C33.3429 34.9276 33.0931 35.8096 33.0931 36.8224C33.0931 37.8515 33.3346 38.7499 33.8175 39.5176C34.3171 40.2853 35.0665 40.6692 36.0657 40.6692C37.0316 40.6692 37.7644 40.2853 38.264 39.5176ZM46.2701 42.8009C45.3209 42.1638 44.6131 41.3389 44.1468 40.3262C43.6972 39.2971 43.4724 38.1945 43.4724 37.0184C43.4724 35.8423 43.6972 34.7479 44.1468 33.7351C44.6131 32.706 45.3209 31.873 46.2701 31.2359C47.2194 30.5989 48.3934 30.2803 49.7923 30.2803C51.6409 30.2803 53.1064 30.8602 54.1888 32.02C55.288 33.1798 55.8375 34.8541 55.8375 37.0429V37.974H46.7947V38.17C46.7947 38.9541 47.0695 39.632 47.6191 40.2037C48.1686 40.7591 48.8597 41.0367 49.6924 41.0367C50.3419 41.0367 50.8915 40.8897 51.3411 40.5957C51.7907 40.3017 52.1155 39.9015 52.3153 39.3951H55.7126C55.3629 40.6692 54.6801 41.7146 53.6643 42.5314C52.6484 43.3318 51.3494 43.732 49.7674 43.732C48.3851 43.732 47.2194 43.4216 46.2701 42.8009ZM51.7158 33.4901C51.2162 33.0001 50.5584 32.7551 49.7424 32.7551C48.8764 32.7551 48.1936 33.0246 47.694 33.5636C47.1944 34.1027 46.9279 34.8377 46.8946 35.7688H52.5152C52.4819 34.7397 52.2154 33.9802 51.7158 33.4901ZM59.9778 30.5989V32.5835H60.1527C60.4524 31.9465 60.9354 31.4074 61.6015 30.9664C62.2677 30.509 63.0754 30.2803 64.0246 30.2803C65.7399 30.2803 66.9473 30.8194 67.6467 31.8975C68.3628 32.9756 68.7209 34.2007 68.7209 35.5728V43.536H65.2736V36.1363C65.2736 35.1889 65.0405 34.4457 64.5742 33.9066C64.1245 33.3676 63.4834 33.0981 62.6507 33.0981C61.7681 33.0981 61.1019 33.3839 60.6523 33.9557C60.2026 34.511 59.9778 35.2379 59.9778 36.1363V43.536H56.4806V30.5989H59.9778ZM72.1459 42.8009C71.1967 42.1638 70.4889 41.3308 70.0226 40.3017C69.573 39.2726 69.3481 38.17 69.3481 36.9939C69.3481 35.8341 69.573 34.7479 70.0226 33.7351C70.4889 32.706 71.1967 31.873 72.1459 31.2359C73.0952 30.5989 74.2692 30.2803 75.6681 30.2803C77.4334 30.2803 78.8239 30.7786 79.8398 31.775C80.8723 32.7551 81.4968 33.9965 81.7133 35.4993H78.341C78.2244 34.7642 77.9413 34.1762 77.4917 33.7351C77.0587 33.2778 76.4592 33.0491 75.6931 33.0491C74.6772 33.0491 73.9278 33.4329 73.4449 34.2007C72.9786 34.9684 72.7454 35.8995 72.7454 36.9939C72.7454 38.121 72.9786 39.0684 73.4449 39.8361C73.9278 40.6039 74.6772 40.9877 75.6931 40.9877C76.4425 40.9877 77.042 40.7672 77.4917 40.3262C77.9413 39.8688 78.2244 39.2726 78.341 38.5375H81.7133C81.4968 40.0403 80.8723 41.2899 79.8398 42.2863C78.8239 43.2664 77.4334 43.7565 75.6681 43.7565C74.2692 43.7565 73.0952 43.4379 72.1459 42.8009ZM87.2183 46.9662C86.9519 47.4399 86.4773 47.8973 85.7945 48.3384C85.1283 48.7794 84.2457 48.9999 83.1466 48.9999C82.6803 48.9999 82.2806 48.9591 81.9475 48.8774C81.6145 48.8121 81.4063 48.7712 81.323 48.7549V46.3782C81.5895 46.4435 81.9475 46.4762 82.3972 46.4762C82.9467 46.4762 83.3881 46.3864 83.7211 46.2067C84.0542 46.027 84.3206 45.7901 84.5205 45.4961C84.7203 45.2021 84.9202 44.7937 85.12 44.271L85.5447 43.2419L80.7984 30.5989H84.2957L87.1434 39.4931H87.2933L90.2909 30.5989H93.7881L87.9678 45.3736C87.7346 45.978 87.4848 46.5089 87.2183 46.9662Z" fill="#4D4D4D"/>
</g>
<defs>
<clipPath id="clip0_4_141">
<rect width="107" height="49" fill="white" transform="translate(0.5)"/>
</clipPath>
</defs>
</svg>
