<svg width="20" height="20" viewBox="0 0 20 20" fill="none" xmlns="http://www.w3.org/2000/svg"><path fill-rule="evenodd" clip-rule="evenodd" d="M10 14a4 4 0 1 0 0-8 4 4 0 0 0 0 8Z" fill="#7334E8"/><path d="M7.125 5.258h5.5l2.75 4.763-2.75 4.764h-5.5l-2.75-4.764 2.75-4.763Z" fill="#2EB9F5"/><path d="M7.125 3.633c-.58 0-1.117.31-1.407.813l-2.75 4.763a1.625 1.625 0 0 0 0 1.625l2.75 4.763c.29.503.826.813 1.407.813h5.5c.58 0 1.117-.31 1.407-.813l2.75-4.763c.29-.503.29-1.122 0-1.625l-2.75-4.763a1.625 1.625 0 0 0-1.407-.813h-5.5Z" stroke="#2EB9F5" stroke-opacity=".15" stroke-width="3.25" stroke-linejoin="round"/></svg>