<svg width="226" height="226" viewBox="0 0 226 226" fill="none" xmlns="http://www.w3.org/2000/svg"><path fill="transparent" d="M0 0h226v226H0z"/><circle cx="113" cy="113" r="74" fill="#F0F1F2"/><path fill="#D9942D" d="M115 73h53v52h-53z"/><mask id="a" style="mask-type:luminance" maskUnits="userSpaceOnUse" x="39" y="39" width="148" height="149"><path d="M187 113c0 40.9-33.1 74-74 74s-74-33.1-74-74 33.1-74 74-74 74 33.2 74 74Z" fill="#fff"/></mask><g mask="url(#a)"><path fill="#D9942D" d="M120 125h73v62h-73z"/><path d="M68 125h54v63H68v-63Zm64-52h55v52h-55z" fill="#E9AF58"/></g><path fill="#D9942D" d="M154 73h14v15h-14z"/><g filter="url(#b)"><path d="M39 52a2 2 0 0 1 2-2h68l23 23v99a2 2 0 0 1-2 2H41a2 2 0 0 1-2-2V52Z" fill="#fff"/></g><path d="M94 70h25.5m-26 37H119m-25 37h25.5" stroke="#E8E9EB" stroke-width="6" stroke-linecap="round"/><path d="M93 81h27m-27 37h27m-27 37h27" stroke="#E8E9EB" stroke-width="4" stroke-linecap="round"/><path fill="#F0F1F2" d="M48 133h34v32H48zm0-74h34v32H48zm0 37h34v32H48z"/><path d="M64.865 145.04c1.554 0 2.814-1.102 2.814-2.462s-1.26-2.462-2.814-2.462-2.814 1.102-2.814 2.462 1.26 2.462 2.814 2.462Z" fill="#42474C"/><path d="M64.894 142.93c-4.264 0-7.768 3.251-7.768 7.33v4.63h15.477v-4.63c.058-4.079-3.387-7.33-7.71-7.33Z" fill="#208B86"/><path d="M73.719 157h-17.01c-.524 0-.99-.424-.99-1.031v-1.455c0-.607.466-1.032.99-1.032h17.01c.583 0 .99.486.99 1.032v1.455c.058.607-.407 1.031-.99 1.031Z" fill="#42474C"/><path d="M69.555 101.235s-1.302.63-4.368.63c-3.066 0-4.452-.63-4.452-.63l-9.66 3.78 1.301 5.88 5.03-1.218v13.357h15.478v-13.399l5.03 1.26 1.302-5.88-9.66-3.78Z" fill="#5AB2AC"/><path d="M69.513 101.235a4.41 4.41 0 0 1-4.41 4.41c-2.394 0-4.369-1.974-4.369-4.41 0 0 1.428.63 4.453.63 3.024 0 4.326-.63 4.326-.63Z" fill="#42474C"/><path d="M52.927 70.047s-1.41 3.933-.746 7.803h26.556c-.231-1.791-1.504-3.134-3.125-3.39l-.29-.064c-2.777-.384-5.381-1.471-7.754-3.134L62.823 68c-1.794 2.622-5.209 3.965-7.987 2.814l-1.91-.767Z" fill="#399C97"/><path d="M78.737 77.849v2.189c0 .313-.118.625-.355.625h-25.71a.69.69 0 0 1-.67-.703v-2.111h26.735Z" fill="#42474C"/><path d="m109 50 23 23h-21a2 2 0 0 1-2-2V50Z" fill="#B6BABF"/><path fill="#fff" d="M154 125h14v15h-14z"/><defs><filter id="b" x="34" y="46" width="103" height="134" filterUnits="userSpaceOnUse" color-interpolation-filters="sRGB"><feFlood flood-opacity="0" result="BackgroundImageFix"/><feColorMatrix in="SourceAlpha" values="0 0 0 0 0 0 0 0 0 0 0 0 0 0 0 0 0 0 127 0" result="hardAlpha"/><feOffset dy="1"/><feGaussianBlur stdDeviation="2.5"/><feColorMatrix values="0 0 0 0 0 0 0 0 0 0 0 0 0 0 0 0 0 0 0.3 0"/><feBlend in2="BackgroundImageFix" result="effect1_dropShadow_525_124424"/><feBlend in="SourceGraphic" in2="effect1_dropShadow_525_124424" result="shape"/></filter></defs></svg>